<?xml version="1.0" encoding="utf-8"?>
<!-- Generator: Adobe Illustrator 22.1.0, SVG Export Plug-In . SVG Version: 6.00 Build 0)  -->
<svg version="1.1" id="Layer_1" xmlns="http://www.w3.org/2000/svg" xmlns:xlink="http://www.w3.org/1999/xlink" x="0px" y="0px"
	 width="50px" height="50px" viewBox="0 0 850.4 850.4" style="enable-background:new 0 0 850.4 850.4;" xml:space="preserve"
	>
<style type="text/css">
	.st0{fill:#F6C73E;}
	.st1{fill:#FFFFFF;stroke:#000000;stroke-miterlimit:10;}
	.st2{fill:#F59639;}
	.st3{fill:#D35A51;}
	.st4{fill:#C46464;}
	.st5{fill:#C23533;}
	.st6{fill:#D7D9E4;}
</style>
<g>
	<path d="M760.9,566.1c-1.1-7-5.7-12.8-12.4-15.4c-40.5-15.8-90.1-48.8-130.8-86.3c0-0.4,0-0.9,0-1.3c-1.8-16.4-13.8-48.2-30.2-55.5
		c0.6-6.5,2.5-12.9,5.7-18.8c0.5-1,1.1-1.9,1.7-2.9c15.4-25,23.6-53.3,23.6-81.9c0-25.1-6.2-49-17.3-70.5c3.3-1.7,5.6-4.2,7.3-6.1
		c7.7-8.3,4.4-24.8-3.4-35.8c-3.1-4.4-4-10.4-2.6-16.8c2.2-10-2-23-11-33.9c-3.6-4.4-8-8.6-12.9-12.5c-0.2-0.1-0.3-0.2-0.5-0.3
		c7.1-11,14.1-18.8,20-18.8c1.1,0,2.1,0.3,3.2,0.8c0.7,0.3,1.3,0.7,1.9,1.2c-0.2,4.1,0.7,8.2,2.7,12.1c2.5,5,6.5,9,11.2,11.2
		c-0.9,4-0.6,8.4,1.1,12.5c2.2,5.5,6.4,9.8,11.6,11.6c1.9,0.7,4,1.1,6.1,1.1c7.2,0,14-3.9,17.7-9.7c4.4,3.5,10.2,6.7,17.2,7.3
		c0.7,0.1,1.4,0.1,2.1,0.1c9.4,0,18.1-5.5,21.1-13.5c1.6-4.2,1.4-9.1-0.5-13.5c8.4-0.8,14.3-4.5,17.4-11c3.6-7.5,1.6-17-4.8-23
		c-8.2-7.7-17.4-8.7-25.3-8.7c-2.2,0-4.5,0.1-6.8,0.2c-0.1,0-0.1,0-0.2,0c0.9-6.3-2.3-9.9-4-11.3c-3.1-2.7-7.7-4.1-13.6-4.1
		C617.4,23.9,562.5,6.8,456.1,4c-1.6,0-3.2-0.1-4.8-0.1c-49.4,0-99.6,20.7-137.8,56.8c-15.3,14.5-30.4,40.7-42.2,68.4
		c-3.9,2.5-7.8,5.1-11.5,7.9c-6.6,5.1-12.1,10.6-16.5,16.2c-8.5,11.2-13.3,24.9-13.4,38.5c-0.1,11.8,5,24.3,13.5,32.9
		c1.1,1.1,2.1,2,3.2,2.9c-13,23-20.4,48.9-20.4,76.3c0,28.9,8.3,57.4,24,82.5l0.3,0.5c3.5,5.7,5.6,11.9,6.5,18.2
		c-4.7,2.9-10.3,8.8-14.4,15.6c-6.5,10.8-8.7,22.4-6.5,33.1c-31.5,26.4-100.8,82.5-137.7,96.9c-6.7,2.6-11.3,8.3-12.4,15.4
		c-1.1,7,1.5,13.7,6.9,18.2c23.4,19,48.5,28.7,74.8,28.7c9.8,0,19.8-1.4,29.7-4.1c-0.3,36,15.6,72.8,45.2,104.4
		c12.9,13.7,27.8,25.9,44.1,36.4c-12.1,8.2-24.1,16.8-35.7,25.7c-5.1,3.9-15.7,11.9-12.8,24c1.6,6.5,6.8,11.6,13.6,13.4
		c2.3,0.6,4.6,0.9,7,0.9c5.1,0,10.3-1.4,16.3-4.3c3.5-1.7,5.5-2,6.3-2c0.7,0,0.8,0.1,0.9,0.3c0.9,1.6,2,4.4,3.2,7.2
		c2.2,5.6,4.5,11.4,7.7,14.6c4.3,4.5,10.1,6.8,16.9,6.8c3.9,0,8.1-0.8,12.5-2.3c1.1-0.4,2.4-1.2,6-3.3c2.8-1.7,6.2-3.7,8.2-4.7
		c0.8-0.4,1.7-0.6,2.6-0.6c2.7,0,5.7,1.4,7.9,3.7c1.1,1.2,2.2,2.6,3.2,4.3c4.4,7.7,12.4,12.5,20.8,12.5c0,0,0,0,0,0
		c2,0,3.9-0.3,5.8-0.8c2.4-0.7,4.6-1.6,6.5-2.9c12.4-7.9,13-25.5,13.2-33.9c0.2-6.7,0.3-13.2-0.3-19.5c8.6,1,17.3,1.5,25.8,1.5
		c8.6,0,17.2-0.5,25.8-1.5c-0.5,6.3-0.5,12.8-0.3,19.5c0.3,8.4,0.8,26,13.2,33.9c1.9,1.2,4.1,2.2,6.5,2.9c1.9,0.5,3.9,0.8,5.8,0.8
		c8.4,0,16.3-4.8,20.8-12.5c1-1.7,2-3.1,3.2-4.3c2.2-2.3,5.2-3.7,7.9-3.7c1,0,1.9,0.2,2.6,0.6c2.1,1,5.5,3,8.2,4.7
		c3.6,2.2,5,3,6,3.3c4.4,1.5,8.6,2.3,12.5,2.3c6.8,0,12.6-2.4,16.9-6.8c3.1-3.3,5.5-9.1,7.7-14.6c1.2-2.9,2.2-5.6,3.3-7.4
		c0,0,0.3-0.1,0.8-0.1c0.8,0,2.8,0.3,6.3,2c6,3,11.2,4.3,16.3,4.3c2.4,0,4.7-0.3,7-0.9c6.9-1.8,12.1-6.9,13.6-13.4
		c2.9-12.1-7.7-20.2-12.8-24c-11.7-8.8-23.7-17.4-35.7-25.7c16.5-10.6,31.6-22.9,44.6-36.9c29.5-31.7,45.2-68.6,44.7-104.5
		c10.7,3.1,21.4,4.7,31.9,4.7c26.3,0,51.4-9.7,74.8-28.7C759.4,579.8,762,573,760.9,566.1z"/>
	<path class="st0" d="M392.1,808.1c-0.3,11.2-1.6,24.1-11.1,30.1c-1.6,1.1-3.4,1.8-5.3,2.3c-8.3,2.3-17-2-21.3-9.5
		c-1.1-1.9-2.3-3.7-3.9-5.2c-4.1-4.2-10.6-6.5-15.8-4.1c-4.2,1.9-12.3,7.4-13.8,7.9c-8.5,2.9-18,3.3-24.4-3.4
		c-4-4.2-7.3-15.8-10.2-20.9c-2.5-4.4-8.8-2.4-13.3-0.2c-6.2,3.1-12.8,5-20,3.1c-4.9-1.3-9.1-5-10.3-10c-2-8.4,4.8-14.4,11.1-19.2
		c12.2-9.2,24.6-18.1,37.2-26.7c30.4,18.7,65.4,31.2,100.8,35.9C392.4,794.8,392.3,801.6,392.1,808.1z M590.9,779
		c-12.1-9.2-24.5-18.1-37.2-26.7c-30.4,18.7-65.4,31.2-100.8,35.9c-0.7,6.6-0.5,13.4-0.3,19.9c0.3,11.2,1.6,24.1,11,30.1
		c1.6,1.1,3.4,1.8,5.3,2.3c8.4,2.3,17-2,21.3-9.5c1.1-1.9,2.3-3.7,3.9-5.2c4.1-4.2,10.6-6.5,15.8-4.1c4.2,1.9,12.3,7.4,13.8,7.9
		c8.5,2.9,18,3.3,24.4-3.4c4.1-4.2,7.3-15.8,10.2-20.9c2.5-4.4,8.7-2.4,13.3-0.2c6.2,3.1,12.9,5,20.1,3.1c4.9-1.3,9.1-5,10.3-10
		C604,789.8,597.2,783.8,590.9,779z"/>
	<path class="st1" d="M552.4,668.9c-32.9,66.5-105.8,103-130,103c-39.8,0-208.8-98.6-117.8-266.6c40.9,14.6,94.8,24.5,146.5,24.5
		c4.8,0,9.9-0.1,15-0.3c-8.3,30.9-11.3,41.1-25.4,66c-1.3,2.3-1.7,5-1.2,7.6c2.5,11.1,16.4,20,36,24.1c-4.1,9.2-7.5,15.6-8.9,18.1
		c-2.3,4.3-1.9,9.5,1.2,13c7.3,8.3,28.5,14,52.7,14C531.3,672.3,542.1,671.1,552.4,668.9z"/>
	<path class="st1" d="M561.7,319.5c-2.9,23.7-11.7,50.7-23.9,76.2c-5.2,10.9-8.6,22.3-10.3,33.9c-0.6,0.2-1.3,0.4-1.9,0.6
		c-3.2-1.6-7.8-2.3-13.6-2.3c-12.5,0-32.4,3.8-36.8,13.8c-20,3-41,4.6-62.6,4.6c-34.1,0-66.5-4.1-92.3-11
		c-1.4-13.3-5.2-26.4-11.4-38.6c-13.1-25.7-22.8-53.2-25.8-77.1c-1.3-10.7,2.2-50.2,24.9-75.9c12.6-14.3,28.8-21.6,48.1-21.6
		c2.4,0,4.9,0.1,7.5,0.4c29.4,2.7,49.9,27.3,57.9,38.6c0.5,0.7,1.4,0.7,1.9,0c7.9-11.3,28.4-36,57.9-38.6c2.5-0.2,5-0.4,7.4-0.4
		c19.3,0,35.5,7.3,48.1,21.5C559.4,269.2,563,308.8,561.7,319.5z"/>
	<path d="M391.2,301.8c-9.1-3.8-20.8,3.5-26.2,16.4c-5.4,12.8-2.4,26.3,6.6,30.2c9.1,3.8,20.8-3.5,26.2-16.4
		C403.2,319.1,400.3,305.6,391.2,301.8z M389.2,324.8c-3.2,0-5.7-2.6-5.7-5.7c0-3.2,2.6-5.7,5.7-5.7c3.2,0,5.7,2.6,5.7,5.7
		C395,322.3,392.4,324.8,389.2,324.8z M481.9,318.2c-5.4-12.8-17.1-20.2-26.2-16.4c-9.1,3.8-12,17.3-6.6,30.2
		c5.4,12.8,17.1,20.2,26.2,16.4S487.3,331,481.9,318.2z M455.7,324.8c-3.2,0-5.7-2.6-5.7-5.7c0-3.2,2.6-5.7,5.7-5.7
		c3.2,0,5.7,2.6,5.7,5.7C461.5,322.3,458.9,324.8,455.7,324.8z"/>
	<path class="st2" d="M382.2,376c-1.6-1-1.3-3.4,0.5-4c4.1-1.3,10-3.5,13.9-6.1c7.3-4.8,17.1-15.1,26.9-15.1
		c8.9,0,19.7,10.3,26.9,15.1c3.9,2.6,9.8,4.8,13.9,6.1c1.8,0.6,2.1,3,0.5,4c-4.1,2.5-10.3,6.7-14.3,10.9c-7.3,7.5-18,23.8-26.9,23.8
		c-9.8,0-19.7-16.3-26.9-23.8C392.4,382.6,386.3,378.5,382.2,376z"/>
	<path class="st0" d="M464.2,372c-4.1-1.3-10-3.5-13.9-6.1c-7.3-4.8-18-15.1-26.9-15.1c-9.8,0-19.7,10.3-26.9,15.1
		c-3.9,2.6-9.8,4.8-13.9,6.1c-1.8,0.6-2.1,3-0.5,4c4.1,2.5,10.3,6.7,14.3,10.9c7.3,7.5,17.1,23.8,26.9,23.8
		c8.9,0,19.7-16.3,26.9-23.8c4.1-4.2,10.2-8.4,14.3-10.9C466.3,375,466,372.6,464.2,372z M440.5,386.8c-1.6,1.8-7.4,8.4-7.6,8.7
		c-5,6-14.3,5.9-19.3-0.2c-0.1-0.1-5.8-6.8-7.4-8.5c-0.2-0.2-0.1-0.5,0.2-0.6c2.1-0.1,8.1,2.5,12.5,4.2c2.7,1,5.8,1.1,8.5,0.1
		c4.4-1.6,10.6-4.2,12.8-4.2C440.6,386.2,440.7,386.6,440.5,386.8z"/>
	<path class="st3" d="M529.2,366.8c0,9.7-10,17.5-22.3,17.5s-22.3-7.8-22.3-17.5s10-17.5,22.3-17.5S529.2,357.2,529.2,366.8z
		 M339.6,349.3c-12.3,0-22.3,7.8-22.3,17.5s10,17.5,22.3,17.5s22.3-7.8,22.3-17.5S351.9,349.3,339.6,349.3z"/>
	<g>
		<path class="st4" d="M499.4,526.7c0,37.4-12.4,73.6-22.1,96.2c-18.1-3.7-31.2-11.5-33.3-20.8c-0.3-1.4-0.1-3,0.7-4.3
			c14.6-25.8,17.7-36.6,26.3-68.6C480.2,528.8,489.7,528,499.4,526.7z"/>
		<g>
			<path class="st5" d="M499.3,521.9c-110.6,15.2-246.8-27.7-257.4-64.5c-8.9-25.5,14-48.6,20.2-49.6
				c17.8,31.7,116.9,52.7,212.3,38.6c0.2,1.3,0.7,2.6,1.6,3.8c14.3,19.2,20.9,40.8,22.8,62.5C499,515.8,499.2,518.9,499.3,521.9z
				 M582.2,410.8c-15.9,9.3-33.3,16.9-51.6,22.7c17.6,13.2,31.6,37.9,41.7,66.5c14.6-7.6,27.6-17.2,38.2-28.9
				c1.8-2.1,2.8-4.8,2.5-7.6C610.9,444.3,596.6,412.9,582.2,410.8z"/>
			<path class="st5" d="M479.7,447.5c-0.5-0.7-0.9-1.6-0.7-2.5c1.9-10.9,38-15.8,46.1-9.6c46.5,31.2,70.8,150.6,57.7,209
				c-1.6,6.9-6.7,12.4-13.3,14.8c-40.8,15.1-88.2,7.4-98.2-4c-1.8-2.1-1.9-5.2-0.6-7.6C492.3,608.1,528.6,513,479.7,447.5z"/>
		</g>
		<path class="st5" d="M650.5,72.8c-5.6,1-11.1,4.4-14.6,9.1c-1.7,2.3-2.9,4.9-3.4,7.5c-1.6-0.3-3.1-0.5-4.7-0.5
			c-4.7,0-9.5,1.4-13.6,3.9c-4.4,2.7-7.6,6.4-9.4,10.8c-0.3,0.8-0.6,1.6-0.8,2.4c-0.2-0.1-0.4-0.2-0.6-0.3
			c-9.3-4.6-18.7,3.6-29,19.4c-13.8-9.9-29.3-16.3-40.3-20c-14.6-4.9-30.2-7.6-45.2-10.2c-14.2-2.4-27.6-4.7-40.1-8.7
			c-3.9-1.2-9.2-1.8-16.3-1.8c-37.3,0-113.5,16.9-135.8,30.1c-3.1,1.9-6.4,3.7-9.7,5.6c-2.2,1.2-4.4,2.5-6.5,3.7
			c10.7-24.9,23.5-47.4,36.4-59.5C351,31.7,400.8,7.2,456,8.7C558.8,11.4,612.5,27.1,650.5,72.8z"/>
	</g>
	<path class="st6" d="M702.8,99.6c-10.3-9.7-22.7-7.2-34.4-7.1c-0.5,0-0.8-0.5-0.6-1c2.4-5.4,1.7-9.3-1-11.6
		c-2.8-2.4-7.8-3.3-14-2.8c-8.9,0.8-17.5,9.2-15.8,17.6c0.1,0.5-0.5,0.9-1,0.7c-6-3.1-13.6-2.3-19.4,1.3c-3.3,2-6,5-7.5,8.6
		c-4.1,10.2,2.6,23.3,13.3,26c0.4,0.1,0.6,0.5,0.4,0.9c-4,7.8,0.2,18.8,8.5,21.7c8.2,2.9,18.1-2.7,20.2-11.1
		c0.1-0.5,0.8-0.7,1.1-0.3c5,5.2,11.4,9.2,18.5,9.8c7.5,0.7,15.8-3.3,18.5-10.4c2.7-7.1-2-16.4-9.5-17.2c9.8,1.5,21.9,2.1,26.5-7.7
		C709.5,111.3,707.6,104.1,702.8,99.6z"/>
	<path class="st6" d="M601.3,194.1c-4.2-6-4.9-13.5-3.3-20.6c1.8-8.1-1.7-19.8-10-29.9c-3.5-4.3-7.7-8.2-12.2-11.8
		c-12.5-10-28.1-17.4-43.2-22.4c-27.5-9.2-58.6-10.4-85.3-18.8c-23.4-7.4-122.6,12.7-148.2,27.8c-11.9,7-25,13.7-36.3,22.4
		c-5.9,4.5-11.2,9.6-15.6,15.3c-9.1,11.9-12.4,24.8-12.5,35.7c-0.2,20.9,18.4,43,34.4,35.8c80.7-36.4,259.5-24.2,315.1,0.5
		c11.6,5.2,16.2,1.1,20.9-4.1C610.6,218,608.5,204.4,601.3,194.1z"/>
	<g>
		<path d="M475.8,58.9l-27.3,27.1c-1-0.3-2-0.6-3.2-0.8l26.5-26.4H475.8z M383.5,21.7c-1.3,0.5-2.6,1-3.9,1.6h2.3L383.5,21.7z
			 M550.9,54.9l29.5-29.3c-1-0.3-2-0.7-3-1L550.9,51V54.9z M388.5,23.3l5.3-5.3c-2,0.7-4,1.4-6,2.1l-3.2,3.2H388.5z M623.4,47.2
			c-0.4-0.3-0.7-0.5-1.1-0.8v1.9L623.4,47.2z M462.5,23.3h3.9l13.2-13.2v2.7l-10.5,10.5h3.9l6.6-6.6v2.7l-3.9,3.9h3.9v5.3l5.3-5.3
			h2.7l-8,7.9v3.9l11.9-11.9h2.7l-14.6,14.5v3.9l18.5-18.5h2.7l-21.2,21.1v3.9l25.2-25h2.7L479.6,51v3.9l31.8-31.6h2.7l-34.4,34.3
			v1.3h-1.2l-27.9,27.8c1,0.3,2,0.6,3,0.9l26.1-25.9v2.7l-23.9,23.8c1,0.3,2.1,0.6,3.1,0.8l20.8-20.7v2.7L461,89.5
			c1.1,0.3,2.1,0.5,3.2,0.7l15.5-15.4v2.7l-13.3,13.2c1.1,0.2,2.2,0.5,3.3,0.7l10-9.9v2.7l-7.8,7.7c1.1,0.2,2.2,0.4,3.3,0.6l4.4-4.4
			v2.7l-2.2,2.2c3.3,0.6,6.6,1.2,10,1.7h0.2l0,0c0.4,0.1,0.8,0.1,1.3,0.2c0.7,0.1,1.4,0.2,2.1,0.4l0.6-0.6h2.7l-1,1
			c1.1,0.2,2.2,0.4,3.3,0.6l1.6-1.6h2.7l-2,2c1.1,0.2,2.2,0.4,3.3,0.6l2.6-2.6h2.7l-3,3c1.1,0.2,2.2,0.4,3.3,0.6l3.7-3.7h2.7
			l-4.1,4.1c1.1,0.2,2.2,0.5,3.3,0.7l2.1-2.1v-2.7h2.6L551,61.6v2.7l-30.4,30.3h3.9L551,68.2v2.7l-23.8,23.7h3.9L551,74.8v2.7
			l-17.2,17.1h3.9L551,81.4v2.7l-10.5,10.5h3.9L551,88v2.7l-3.9,3.9h3.9v5.3l5.3-5.3h2.7l-8,7.9v3.9l11.9-11.9h2.7l-14.6,14.5v2.5
			c0.3,0.1,0.7,0.3,1,0.5l17.5-17.5h2.7l-18.4,18.3c0.9,0.4,1.8,0.8,2.6,1.3l19.7-19.6h2.7l-20.6,20.5c0.9,0.4,1.7,0.9,2.6,1.4
			l22-21.9h2.7l-22.9,22.8c0.8,0.5,1.7,0.9,2.5,1.4l21.6-21.5v-2.7h2.6l33.1-32.9v2.7l-30.4,30.3h3.9l26.4-26.3v2.7l-23.8,23.7h3.9
			l19.8-19.7v2.7l-17.2,17.1h3.9l13.2-13.2v2.7l-9.9,9.8c0.6-0.4,1.2-0.8,1.8-1.2c1.9-1.2,4-2.1,6.1-2.7l2-2v1.5
			c1.8-0.4,3.7-0.6,5.5-0.6c1.6,0,3.2,0.2,4.7,0.5c0.5-2.6,1.7-5.1,3.4-7.5c3.5-4.7,9-8.1,14.6-9.1c-4.7-5.6-9.5-10.7-14.7-15.5
			l-1.6,1.6h-2.7l2.9-2.9c-0.7-0.6-1.4-1.2-2.1-1.8l-4.8,4.7h-2.7l6-6c-0.7-0.6-1.4-1.2-2.2-1.8l-6.4,6.4v1.3H621l-34.4,34.3v-2.7
			l31.8-31.6h-3.9l-27.8,27.7V84l25.1-25h-3.9L586.6,80v-2.7l18.5-18.4h-3.9l-14.6,14.5v-2.7l11.9-11.9h-3.9l-8,7.9v-2.7l5.3-5.3
			h-5.3V55l-3.9,3.9H580l6.6-6.6v-3.9l-10.5,10.5h-2.7l13.2-13.2v-3.9l-17.2,17.1h-2.7l19.8-19.7v-3.9l-23.8,23.7h-2.7l26.4-26.3
			v-3.9l-30.4,30.3h-2.7l31.8-31.6c-1-0.4-1.9-0.7-2.9-1l-31.5,31.3v1.3h-1.2l-34.4,34.3v-2.7l31.8-31.6h-3.9l-27.8,27.7V84l25.1-25
			h-3.9L515.3,80v-2.7l18.5-18.4h-3.9l-14.6,14.5v-2.7l11.9-11.9h-3.9l-8,7.9v-2.7l5.3-5.3h-5.3V55l-3.9,3.9h-2.7l6.6-6.6v-3.9
			l-10.5,10.5h-2.7l13.2-13.2v-3.9l-17.2,17.1h-2.7l19.8-19.7v-3.9l-23.8,23.7h-2.7l26.4-26.3v-3.9l-30.4,30.3h-2.7L515.3,26v-2.7
			h2.6l9.5-9.5c-1.2-0.2-2.3-0.3-3.5-0.5l-8.6,8.6v-2.7l6.2-6.2c-1.2-0.1-2.3-0.3-3.5-0.4l-2.7,2.7v-2.7l0.3-0.3
			c-12.1-1.3-25.2-2.3-39.2-3L462.5,23.3z M348.8,39.3L337.1,51v3.9l21.5-21.4C355.2,35.4,352,37.3,348.8,39.3z M397.8,23.3h3.9
			l6.6-6.6v2.7l-3.9,3.9h3.9v5.3l5.3-5.3h2.7l-8,7.9v3.9l11.9-11.9h2.7l-14.6,14.5v3.9l18.5-18.5h2.7l-21.2,21.1v3.9l25.2-25h2.7
			L408.3,51v3.9l31.8-31.6h2.7l-34.4,34.3v1.3h-1.2l-32.3,32.2c1.6-0.3,3.2-0.6,4.9-0.9l28.7-28.6v2.7l-25.4,25.3
			c1.6-0.3,3.2-0.5,4.8-0.8l20.7-20.6v2.7l-17.5,17.4c1.6-0.2,3.1-0.5,4.7-0.7l12.8-12.8v2.7l-9.7,9.7c1.5-0.2,3.1-0.4,4.6-0.6
			l5.1-5.1v2.7l-2.1,2.1c9.8-1.2,18.7-1.8,26.1-1.8c4.6,0,8.4,0.3,11.6,0.8V84l25.1-25h-3.9L444,80v-2.7l18.5-18.4h-3.9L444,73.4
			v-2.7l11.9-11.9H452l-8,7.9v-2.7l5.3-5.3H444V55l-3.9,3.9h-2.7l6.6-6.6v-3.9l-10.5,10.5h-2.7L444,45.8v-3.9l-17.2,17.1h-2.7
			L444,39.2v-3.9l-23.8,23.7h-2.7L444,32.6v-3.9l-30.4,30.3h-2.7L444,26v-2.7h2.6l14.5-14.4c-1.3,0-2.5-0.1-3.8-0.1L444,21.9v-2.7
			l10.6-10.6c-1.3,0-2.6,0-3.9,0l-6.7,6.7v-2.7l4-4c-14.1,0.3-27.9,2.2-41.1,5.5L397.8,23.3z M624.9,48.4l-2.7,2.6v3.9l4.9-4.9
			C626.4,49.5,625.7,48.9,624.9,48.4z M284.9,113.7l16.5-16.4v-2.7h2.6l33.1-32.9v2.7l-30.4,30.3h3.9l26.4-26.3v2.7l-23.8,23.7h3.9
			l19.8-19.7v2.7l-17.2,17.1h3.9l13.2-13.2v2.7l-10.5,10.5h3.9l6.6-6.6v2.7l-3.9,3.9h3.9v5.2c0.1,0,0.1,0,0.2,0l5.1-5.1h2.7
			l-4.2,4.1c1.7-0.5,3.5-0.9,5.3-1.3l2.8-2.8h2.7l-1.9,1.9c1.7-0.4,3.4-0.8,5.2-1.2l0.7-0.7h2.5c4.8-1.1,9.7-2.1,14.7-3.1v-1
			l31.8-31.6h-3.9l-27.8,27.7V84l25.1-25h-3.9L372.7,80v-2.7l18.5-18.4h-3.9l-14.6,14.5v-2.7l11.9-11.9h-3.9l-8,7.9v-2.7l5.3-5.3
			h-5.3V55l-3.9,3.9h-2.7l6.6-6.6v-3.9l-10.5,10.5h-2.7l13.2-13.2v-3.9l-17.2,17.1h-2.7l19.8-19.7v-3.9l-23.8,23.7h-2.7l26.4-26.3
			v-3.9l-30.4,30.3h-2.7l32.5-32.4c-2.6,1.2-5.2,2.5-7.8,3.8l-27.3,27.2v1.3h-1.2l-34.4,34.3v-2.7l31.8-31.6h-3.9l-27.8,27.7V84
			l25.1-25h-3.9l-12.4,12.3c-6.5,7.9-12.9,18-18.9,29.5l6.2-6.2h2.7l-11.7,11.6C287.3,108.7,286.1,111.2,284.9,113.7z M337.1,48.3
			l3.7-3.7c-1.2,0.9-2.5,1.8-3.7,2.6V48.3z M395.1,23.3l8.2-8.1c-1.9,0.5-3.7,1-5.5,1.6l-6.6,6.5H395.1z M538.9,15.5
			c-1.1-0.2-2.3-0.4-3.4-0.5l-8.3,8.3h3.9L538.9,15.5z M544.5,16.5c-1.1-0.2-2.2-0.4-3.3-0.6l-7.4,7.3h3.9L544.5,16.5z M550.1,17.6
			c-1.1-0.2-2.2-0.4-3.3-0.6l-6.4,6.3h3.9L550.1,17.6z M453.2,23.3l14.3-14.2c-1.3,0-2.5-0.1-3.8-0.1l-14.4,14.4H453.2z M473.8,9.3
			c-1.3-0.1-2.5-0.1-3.8-0.2l-14.2,14.1h3.9L473.8,9.3z M569.1,121.3l17.5-17.5V100l-20,19.9C567.5,120.3,568.3,120.8,569.1,121.3z
			 M524.5,23.3l8.7-8.6c-1.1-0.2-2.3-0.3-3.4-0.5l-9.2,9.1H524.5z M570.7,122.4c0.8,0.5,1.6,1.1,2.3,1.6l7-7
			c2.2-2.9,4.4-5.3,6.6-7.3v-3.2L570.7,122.4z M280.4,123.7c0.8-0.5,1.7-1,2.5-1.4l18.4-18.4V100l-18.7,18.6
			C281.9,120.3,281.2,122,280.4,123.7z M301.4,106.6l-12.2,12.1c2.5-1.4,5-2.9,7.4-4.3c0.6-0.4,1.2-0.7,1.9-1.1l2.9-2.8V106.6z
			 M551,19.4l-3.9,3.9h3.9v5.3l5.3-5.3h2.7l-8,7.9v3.9l11.9-11.9h2.7l-14.6,14.5v3.9l18.5-18.5h2.7l-21.2,21.1v3.9L575.4,24
			c-7.7-2.4-15.8-4.4-24.5-6.2V19.4z"/>
		<path d="M453.4,505.5l-19.3,19.2c-1.3-0.1-2.5-0.1-3.8-0.2l19.2-19.1H453.4z M384.8,505.5L372.3,518c1.1,0.2,2.2,0.4,3.4,0.6
			l13.1-13.1H384.8z M456.1,505.5l-19.4,19.3c1.3,0,2.5,0.1,3.8,0.1l19.5-19.5H456.1z M570.9,481.9l-4,4c0.4,0.9,0.8,1.8,1.1,2.8
			l2.9-2.9V481.9z M570.9,488.4l-2.1,2.1c0.4,0.9,0.7,1.9,1.1,2.8l1-1V488.4z M378.2,505.5L366.7,517c1.1,0.2,2.2,0.4,3.3,0.6
			l12.1-12.1H378.2z M392.7,452.8l-17.2,17.1h3.9l13.2-13.2v2.7l-10.5,10.5h3.9l6.6-6.6v2.7l-3.9,3.9h3.9v5.3l5.3-5.3h2.7l-8,7.9
			v3.9l11.9-11.9h2.7l-14.6,14.5v3.9l18.5-18.5h2.7L392.6,491v3.9l25.2-25h2.7l-27.8,27.7v3.9l31.8-31.6h2.7l-34.4,34.3v1.3h-1.2
			L377.9,519c1.1,0.2,2.3,0.4,3.4,0.5l11.3-11.3v2.7l-9,9c1.1,0.2,2.3,0.3,3.4,0.5l5.6-5.6v2.7l-3.2,3.2c12.7,1.8,25.8,3.1,38.9,3.8
			V524l18.5-18.4h-3.9L428.3,520v-2.7l11.9-11.9h-3.9l-8,7.9v-2.7l5.3-5.3h-5.3v-3.9l-3.9,3.9h-2.7l6.6-6.6V495l-10.5,10.5h-2.7
			l13.2-13.2v-3.9l-17.2,17.1h-2.7l19.8-19.7v-3.9l-23.8,23.7h-2.7l26.4-26.3v-3.9l-30.4,30.3h-2.7l33.1-32.9v-2.7h2.6l20.8-20.7
			c-1.4,0.1-2.9,0.3-4.3,0.4l-19,19v-2.7l16.1-16.1c-1.4,0.1-2.8,0.2-4.2,0.3l-11.9,11.9v-2.7l9.1-9c-1.4,0.1-2.8,0.2-4.2,0.2
			l-4.9,4.9v-2.7l2.1-2.1c-12.8,0.5-25.5,0.5-37.7-0.1V452.8z M463.9,501.5l26.2-26c-0.4-0.9-0.7-1.9-1.1-2.8l-25,24.9V501.5z
			 M321.3,505.5h-1c12,3.7,25,7.1,38.6,9.9l9.9-9.9H365l-8,7.9v-2.7l5.3-5.3H357v-3.9l-3.9,3.9h-2.7l6.6-6.6V495l-10.5,10.5h-2.7
			l13.2-13.2v-3.9l-17.2,17.1h-2.7l19.8-19.7v-3.9l-23.8,23.7h-2.7l26.4-26.3v-3.9l-30.4,30.3h-2.7l33.1-32.9v-2.7h2.6l20.2-20.2
			c-1.2-0.1-2.4-0.2-3.6-0.3L357,468.5v-2.7l16.7-16.7c-1.2-0.1-2.4-0.2-3.6-0.3L357,461.9v-2.7l10.7-10.7c-1.2-0.1-2.4-0.3-3.5-0.4
			l-7.2,7.2v-2.7l4.8-4.8c-1.2-0.1-2.3-0.3-3.5-0.4l-1.3,1.3v-1.5c-13-1.8-25.2-4.2-36.3-7.1L291,469.9h3.9l26.4-26.3v2.7
			l-23.8,23.7h3.9l19.8-19.7v2.7l-17.2,17.1h3.9l13.2-13.2v2.7l-10.5,10.5h3.9l6.6-6.6v2.7l-3.9,3.9h3.9v5.3l5.3-5.3h2.7l-8,7.9v3.9
			l11.9-11.9h2.7l-14.6,14.5v3.9l18.5-18.5h2.7L321.3,491v3.9l25.2-25h2.7l-27.8,27.7v3.9l31.8-31.6h2.7l-34.4,34.3V505.5z
			 M285.7,481.9l-7.3,7.2c0.9,0.4,1.7,0.9,2.6,1.3l4.6-4.6V481.9z M366.2,469.9l19.8-19.7c-1.2-0.1-2.5-0.2-3.7-0.2l-20.1,20H366.2z
			 M371.6,505.5l-10.4,10.4c1.1,0.2,2.2,0.4,3.3,0.7l11.1-11H371.6z M392.3,450.5c-1.3-0.1-2.5-0.1-3.7-0.2l-19.7,19.6h3.9
			L392.3,450.5z M570.6,495.3c0.1,0.3,0.2,0.5,0.3,0.8V495L570.6,495.3z M463.9,505.5h-1.2L443.1,525c1.3,0,2.6,0,3.9,0.1l16.9-16.9
			v2.7l-14.3,14.2c1.3,0,2.6,0,3.9,0l10.3-10.3v2.7l-7.6,7.6c1.3,0,2.7,0,4-0.1l3.6-3.6v2.7l-0.9,0.9c12.2-0.4,24.4-1.3,36.2-3
			c-0.1-3-0.3-6.1-0.5-9.2c-0.3-3.1-0.6-6.2-1.1-9.2l-2,2H493l4.3-4.3c-0.2-1.1-0.4-2.2-0.6-3.3l-7.6,7.6h-2.7l9.9-9.8
			c-0.2-1.1-0.5-2.1-0.7-3.2l-13.1,13h-2.7l15.2-15.2c-0.3-1-0.5-2.1-0.8-3.1l-18.3,18.2h-2.7l20.4-20.3c-0.3-1-0.6-2-1-3
			l-23.4,23.3h-2.7l25.4-25.3c-0.3-1-0.7-1.9-1.1-2.9l-26.9,26.8V505.5z M536.6,431.5l-1.3,1.3v1.3H534l-1.1,1.1
			c0.7,0.6,1.4,1.2,2.1,1.8l0.2-0.2v0.4c9.2,8.3,17.4,19.8,24.4,33.2l0.7-0.7h2.7l-2.5,2.5c0.4,0.9,0.9,1.7,1.3,2.6l5.1-5.1h2.7
			l-6.9,6.9c0.4,0.9,0.8,1.8,1.3,2.7l6.9-6.8v-2.7h2.6l32.2-32c-0.4-0.9-0.8-1.8-1.2-2.7l-33.5,33.4v-2.7l31.8-31.6h-3.9l-27.8,27.7
			v-2.7l25.1-25h-3.9l-21.2,21.1v-2.7l18.5-18.4h-3.9l-14.6,14.5v-2.7l11.9-11.9h-3.9l-8,7.9v-2.7l5.3-5.3h-5.3v-3.9l-3.9,3.9h-2.7
			l6.6-6.6v-3.9l-10.5,10.5h-2.7l13.2-13.2v-3.9l-17.2,17.1h-2.7l14.8-14.7c-2.4,1.2-4.9,2.3-7.4,3.4l-11.3,11.3h-2.7l9.3-9.3
			c-2.2,0.9-4.4,1.8-6.7,2.7l-6.6,6.6h-2.7l4.9-4.9C540.7,430.1,538.7,430.8,536.6,431.5z M242.2,434.2l-0.8,0.8
			c-0.4,1.6-0.8,3.3-1,5l5.8-5.8H242.2z M267.8,415.2l-17.8,17.7v1.3h-1.2L240,443c-0.1,1.3-0.1,2.6-0.1,4l10.1-10v2.7l-9.9,9.9
			c0.1,1.1,0.3,2.3,0.5,3.4l9.4-9.3v2.7l-8.9,8.8c0.2,0.8,0.5,1.6,0.8,2.4c0.1,0.2,0.1,0.4,0.2,0.5l7.9-7.9v2.7l-7.2,7.2
			c0.4,0.9,0.8,1.7,1.3,2.6l5.9-5.8v2.7l-4.8,4.8c0.5,0.8,1.1,1.5,1.7,2.3l3.2-3.2v2.7l-2,2c0.6,0.7,1.2,1.3,1.8,2h0.1v0.1
			c0.8,0.8,1.7,1.7,2.7,2.5l2.6-2.6h2.7l-3.9,3.9c0.7,0.6,1.4,1.2,2.2,1.8l5.7-5.6h2.7l-6.8,6.8c0.7,0.6,1.5,1.1,2.3,1.7l8.5-8.5
			h2.7l-9.6,9.5c0.8,0.5,1.6,1,2.4,1.6l11.2-11.1h2.7L265.7,482c0.8,0.5,1.6,1,2.4,1.5l13.7-13.6h2.7l-14.7,14.6
			c0.8,0.5,1.7,0.9,2.5,1.4l13.4-13.3v-2.7h2.6l30.3-30.2c-1-0.3-2.1-0.6-3.1-0.9l-29.8,29.7v-2.7l27.8-27.7c-1-0.3-2-0.6-3-0.9
			l-24.8,24.7v-2.7l22.7-22.6c-1-0.3-2-0.6-3-1l-19.8,19.7v-2.7l17.8-17.7c-0.7-0.2-1.4-0.5-2.1-0.7h-1.1l-14.6,14.5v-2.7l11.9-11.9
			h-3.9l-8,7.9v-2.7l5.3-5.3h-5.3v-3.9l-3.9,3.9h-2.7l6.6-6.6v-0.2c-0.8-0.4-1.6-0.8-2.4-1.3l-8.1,8.1h-2.7l9.1-9
			c-0.8-0.5-1.7-1-2.5-1.5l-10.5,10.5h-2.7l11.6-11.5c-0.8-0.5-1.6-1.1-2.4-1.6l-13.2,13.1h-2.7l14.3-14.2c-0.8-0.6-1.5-1.1-2.2-1.7
			l-16,16h-2.7l17.3-17.2C269.2,416.4,268.5,415.8,267.8,415.2z M250.1,426.3v3.9l16.5-16.4c-0.6-0.7-1.2-1.4-1.8-2.1L250.1,426.3z
			 M261.9,407.9l-11.8,11.8v3.9l13.5-13.5c-0.5-0.8-1-1.5-1.4-2.3C262.1,407.9,262,407.9,261.9,407.9z M576.2,469.9h3.9l26.4-26.3
			v2.7l-23.8,23.7h3.9l19.8-19.7v2.7l-17.2,17.1h3.9l13.2-13.2v2.7L596,469.9h3.9l6.6-6.6v2.7l-3.9,3.9h3.9v5.3l3.6-3.6
			c0.1-0.1,0.3-0.3,0.4-0.4c1.8-2.1,2.8-4.8,2.5-7.6c-0.8-7-3.2-15.6-6.6-23.8L576.2,469.9z M440.2,469.9h3.9l19.8-19.7v2.7
			l-17.2,17.1h3.9l13.2-13.2v2.7l-10.5,10.5h3.9l6.6-6.6v2.7l-3.9,3.9h3.9v5.3l5.3-5.3h2.7l-8,7.9v3.9l11.9-11.9h2.7l-14.6,14.5v3.9
			l18.5-18.5h2.7L463.9,491v3.9l24.2-24.1c-3.2-7.1-7.2-14-12.1-20.6c-0.9-1.2-1.4-2.4-1.6-3.8c-4.1,0.6-8.2,1.1-12.4,1.6
			L440.2,469.9z M566.1,484l4.8-4.8v-3.9l-6,6C565.3,482.2,565.7,483.1,566.1,484z M437.5,469.9l21.5-21.4c-1.5,0.2-2.9,0.3-4.4,0.5
			l-21.1,21H437.5z M276.7,488.2l9-9v-3.9l-11.6,11.6C274.9,487.3,275.8,487.7,276.7,488.2z M285.7,488.4l-2.8,2.8
			c0.9,0.4,1.8,0.8,2.7,1.2l0.1-0.1V488.4z"/>
		<path d="M482.5,609.8c-0.8,2.2-1.7,4.4-2.5,6.4l-0.9,0.9h-3.9L482.5,609.8z M465.9,617.1l21.6-21.5c0.6-1.9,1.2-3.8,1.8-5.7
			L462,617.1H465.9z M472.5,617.1l11.6-11.5c0.7-2,1.4-4,2.1-6l-17.6,17.5H472.5z M492.3,573.6v3.9l0.4-0.4c0.4-1.7,0.8-3.4,1.2-5.1
			L492.3,573.6z M475.2,581.5h-3.9L456.7,596v-2.7l11.9-11.9h-3.9l-8,7.9v-2.7l5.3-5.3h-5.3v-3.9l-2.7,2.7
			c-2.5,5.3-5.5,10.9-9.3,17.5c-0.7,1.3-1,2.8-0.7,4.3c1.1,5.2,5.7,9.9,12.7,13.7v-2.7l31.8-31.6h-3.9l-27.8,27.7v-2.7l25.1-25h-3.9
			l-21.2,21.1V600L475.2,581.5z M479.1,528.8l-10.9,10.9c-0.5,1.9-1,3.7-1.5,5.4l16.7-16.7C481.9,528.6,480.5,528.7,479.1,528.8z
			 M472.5,545.9l18.2-18.1c-1.5,0.2-2.9,0.3-4.4,0.4l-17.7,17.7H472.5z M492.4,528.8l-17.2,17.1h3.9l13.2-13.2v2.7l-10.5,10.5h3.9
			l6.6-6.6v2.7l-3.9,3.9h3.9v5.3l5.3-5.3h0.7c0.7-6.3,1-12.7,1-19.2c-2.3,0.3-4.7,0.6-7,0.9V528.8z M456.7,575v-0.6
			c-0.2,0.4-0.3,0.7-0.5,1.1L456.7,575z M469.1,536l7.1-7c-1.4,0.1-2.8,0.2-4.2,0.3l-1.4,1.4C470.1,532.5,469.6,534.3,469.1,536z
			 M492.3,570.9l2.4-2.4c0.3-1.6,0.7-3.3,1-4.9l-3.4,3.3V570.9z M492.3,564.3l3.9-3.9c0.3-1.6,0.5-3.1,0.8-4.7l-4.7,4.7V564.3z
			 M456.7,615.8c0.8,0.5,1.7,0.9,2.6,1.3l31-30.9c0.4-1.5,0.9-3.1,1.3-4.7h-0.5L456.7,615.8z M492.3,557.7l5.2-5.1
			c0.2-1.5,0.4-3,0.6-4.5l-5.7,5.7V557.7z"/>
		<path d="M555.3,472.5c4,7.6,7.7,15.9,10.9,24.7l-9.6,9.6v-3.9l8-7.9h-2.7l-5.3,5.3v-5.3h-3.9l3.9-3.9v-2.7l-6.6,6.6h-3.9
			l10.5-10.5v-2.7l-13.2,13.2h-3.9l17.2-17.1v-2.7l-19.8,19.7h-3.9L555.3,472.5z M556.6,526.5l14.7-14.6c-0.3-1-0.6-2-0.9-3
			l-13.7,13.7V526.5z M583.5,567.2l-26.8,26.7v3.9l27.3-27.1C583.8,569.5,583.6,568.3,583.5,567.2z M530.2,494.9l24.2-24.1
			c-0.5-0.9-0.9-1.7-1.4-2.5l-26.7,26.6H530.2z M556.6,513.3L568,502c-0.3-1-0.7-1.9-1-2.9l-10.3,10.3V513.3z M552.7,566.1h3.9v5.3
			l5.3-5.3h2.7l-8,7.9v3.9l11.9-11.9h2.7l-14.6,14.5v3.9l18.5-18.5h2.7l-21.2,21.1v3.9l25.2-25h1.5c-1.7-12.2-4.1-24.6-7.1-36.7
			l-1.1,1.1h-2.7l3.2-3.2c-0.3-1-0.5-2.1-0.8-3.1l-6.4,6.3h-2.7l8.5-8.4c-0.3-1-0.6-2-0.9-3.1l-11.5,11.5h-2.7l13.6-13.6
			c-0.3-1-0.6-2-0.9-3l-15.3,15.2v1.3h-1.2L521,564.8v-2.7l31.8-31.6h-3.9L521,558.2v-2.7l25.1-25h-3.9L521,551.6V549l18.5-18.4
			h-3.9L521,545v-2.7l11.9-11.9H529l-8,7.9v-2.7l5.3-5.3H521v-3.9l-3.9,3.9h-2.7l6.6-6.6V520l-10.5,10.5h-2.7l13.2-13.2v-3.9
			l-17,16.9c-0.3,13.8-2.1,27.5-4.9,40.5l4.8-4.7h2.7l-8.2,8.2c-0.4,1.7-0.8,3.5-1.2,5.2l13.4-13.3h2.7l-17,16.9
			c-0.5,1.8-1,3.6-1.5,5.4l22.4-22.3h2.7l-26.2,26.1c-0.6,1.9-1.2,3.8-1.8,5.7l29.2-29v-2.7h2.6l33.1-32.9v2.7l-30.4,30.3h3.9
			l26.4-26.3v2.7l-23.8,23.7h3.9l19.8-19.7v2.7l-17.2,17.1h3.9l13.2-13.2v2.7l-10.5,10.5h3.9l6.6-6.6v2.7L552.7,566.1z M556.6,519.9
			l13.1-13c-0.3-1-0.7-2-1-2.9l-12.1,12V519.9z M521,510.8v-3.9l-17,16.9c0,1.3,0,2.6,0,3.9L521,510.8z M510.7,432.6l-24.6,24.5
			c7.6,12.7,12.5,26.4,15.2,40.3l2.5-2.5h2.7l-4.8,4.8c0.2,1.1,0.4,2.2,0.6,3.4l8.2-8.2h2.7l-10.5,10.5c0.2,1.2,0.3,2.3,0.4,3.5
			l14-14h2.7l-16.5,16.4c0.1,1.2,0.2,2.4,0.3,3.6l17.4-17.3v-2.7h2.6l28.5-28.3c-0.5-0.8-1-1.7-1.5-2.5L521,493.5v-2.7l28.6-28.4
			c-0.5-0.8-1-1.6-1.5-2.4l-27,26.9v-2.7l25.1-25h-3.9L521,480.3v-2.7l18.5-18.4h-3.9L521,473.7v-2.7l11.9-11.9H529l-8,7.9v-2.7
			l5.3-5.3H521v-3.9l-3.9,3.9h-2.7l6.6-6.6v-3.9l-10.5,10.5h-2.7l13.2-13.2v-3.9l-17.2,17.1h-2.7l19.8-19.7v-3.9l-23.8,23.7h-2.7
			l25.9-25.8c-1-0.2-2.2-0.4-3.4-0.6l-26.5,26.4h-2.7l26.7-26.6C513.4,432.6,512.1,432.6,510.7,432.6z M521,500.3l-17.2,17.1
			c0.1,1.3,0.1,2.5,0.2,3.8l17.1-17V500.3z M521,649.4l-17.3,17.2c1.2,0.1,2.4,0.3,3.6,0.4l13.7-13.6V649.4z M521,642.8l-23,23
			c1.1,0.2,2.3,0.4,3.4,0.5l19.6-19.5V642.8z M521,662.6l-4.9,4.9c1.3,0,2.6,0.1,3.9,0.1l1-1V662.6z M582.1,646.4l-12.9,12.9
			c0.1,0,0.2-0.1,0.3-0.1C575.4,657,580.1,652.3,582.1,646.4z M583.1,642.8c0.3-1.6,0.6-3.2,0.9-4.8l-24.5,24.4
			c1.9-0.5,3.8-1.1,5.7-1.7L583.1,642.8z M485.3,451.3v3.9l22.6-22.5c-1.4,0.1-2.9,0.2-4.4,0.4L485.3,451.3z M521,656l-11.2,11.2
			c1.2,0.1,2.5,0.2,3.7,0.2l7.5-7.5V656z M485.3,444.7v3.9l15.1-15c-1.7,0.3-3.3,0.6-5,1L485.3,444.7z M485.3,442l6.4-6.4
			c-2.4,0.7-4.6,1.6-6.4,2.6V442z M495.7,665.4l25.3-25.2v-2.7h2.6l33.1-32.9v2.7l-30.4,30.3h3.9l26.4-26.3v2.7l-23.8,23.7h3.9
			l19.8-19.7v2.7l-17.2,17.1h3.9l13.2-13.2v2.7l-10.5,10.5h3.9l6.6-6.6v2.7l-3.9,3.9h3.9v5.3l5.3-5.3h2.7l-8,7.9v3.9l11.9-11.9h2.7
			L556.6,652v3.9l18.5-18.5h2.7l-21.2,21.1v3.9l25.2-25h2.3c1.7-10.6,2.4-22.7,2.2-35.6h-0.5l0.5-0.5c0-1.3-0.1-2.5-0.1-3.8
			l-4.3,4.3h-2.7l6.9-6.9c-0.1-1.2-0.1-2.5-0.2-3.7l-10.7,10.6h-2.7l13.2-13.1c-0.1-1.2-0.2-2.4-0.3-3.7l-16.9,16.8h-2.7l19.3-19.2
			c-0.1-1.2-0.2-2.4-0.3-3.6l-22.9,22.8h-2.7l25.4-25.3c-0.1-1.2-0.3-2.4-0.4-3.5l-27.5,27.4v1.3h-1.2L521,636.1v-2.7l31.8-31.6
			h-3.9L521,629.5v-2.7l25.1-25h-3.9L521,622.9v-2.7l18.5-18.4h-3.9L521,616.3v-2.7l11.9-11.9H529l-8,7.9v-2.7l5.3-5.3H521v-3.9
			l-3.9,3.9h-2.7l6.6-6.6v-3.9l-10.5,10.5h-2.7l13.2-13.2v-3.9l-17.2,17.1h-2.7l19.8-19.7v-3.9l-23.8,23.7h-2.7l26.4-26.3v-3.9
			l-30.4,30.3h-0.1c-2,6-4.2,11.7-6.4,17l1.2-1.2v2.7l-3.1,3c-1,2.4-2.1,4.8-3.1,7l6.2-6.1v2.7l-8.5,8.5c-0.3,0.7-0.7,1.4-1,2h2.9
			l6.6-6.6v2.7l-3.9,3.9h3.9v5.3l5.3-5.3h2.7l-8,7.9v3.9l11.9-11.9h2.7L485.3,652v3.9l18.5-18.5h2.7l-21.2,21.1v3.9l25.2-25h2.7
			l-26,25.9c1,0.3,2,0.6,3.1,0.8l26.9-26.8h2.7l-27.4,27.3C493.5,665,494.6,665.2,495.7,665.4z"/>
	</g>
</g>
</svg>
