<?xml version="1.0" standalone="no"?>
<!DOCTYPE svg PUBLIC "-//W3C//DTD SVG 20010904//EN"
 "http://www.w3.org/TR/2001/REC-SVG-20010904/DTD/svg10.dtd">
<svg version="1.0" xmlns="http://www.w3.org/2000/svg"
 width="400.000000pt" height="400.000000pt" viewBox="0 0 400.000000 400.000000"
 preserveAspectRatio="xMidYMid meet">
<metadata>
Created by potrace 1.15, written by Peter Selinger 2001-2017
</metadata>
<g transform="translate(0.000000,400.000000) scale(0.100000,-0.100000)"
fill="#000000" stroke="none">
<path d="M0 2000 l0 -2000 2000 0 2000 0 0 2000 0 2000 -2000 0 -2000 0 0
-2000z m1490 880 c114 -14 233 -42 360 -85 58 -20 126 -36 151 -36 29 -1 98
16 186 45 193 63 295 80 483 80 203 0 368 -33 532 -106 l70 -32 -6 -34 c-3
-20 -10 -40 -17 -46 -8 -8 -9 0 -4 30 l6 42 -73 30 c-165 68 -319 96 -528 95
-174 0 -263 -16 -452 -78 -177 -58 -213 -59 -373 -5 -183 61 -268 74 -495 74
-217 -1 -275 -10 -445 -70 -123 -44 -150 -51 -141 -36 3 6 42 24 85 41 224 86
446 117 661 91z m97 -164 c52 -16 91 -47 42 -32 -41 12 -189 20 -189 9 0 -16
71 -188 83 -200 18 -18 156 -21 167 -3 6 9 3 18 -8 27 -15 11 -11 12 25 13 51
0 58 -9 39 -54 -19 -46 -60 -66 -136 -66 l-60 0 16 -37 c9 -21 19 -51 23 -68
6 -25 12 -31 40 -33 21 -2 40 3 52 14 30 27 25 -3 -10 -57 -58 -93 -131 -123
-291 -124 -96 0 -109 2 -151 27 -49 29 -105 91 -134 148 -9 19 -12 30 -6 24 8
-8 27 -8 57 -3 33 6 56 4 87 -7 94 -35 123 -38 187 -21 33 10 71 17 85 17 14
0 25 1 25 3 0 2 -12 27 -27 57 -26 50 -31 55 -65 58 -43 4 -49 -12 -24 -60 25
-48 -9 -34 -44 17 -17 25 -35 45 -40 45 -6 0 -10 8 -10 18 0 9 -7 30 -15 46
-13 24 -13 31 -3 38 21 13 26 10 58 -37 27 -39 36 -45 65 -45 19 0 35 1 35 3
0 2 -9 21 -19 43 -17 36 -53 116 -84 187 -11 25 -15 27 -42 21 -16 -4 -52 -7
-80 -6 -120 5 -145 7 -145 14 0 3 19 13 43 22 23 8 49 17 57 20 8 3 89 4 180
2 118 -2 180 -8 217 -20z m1263 5 c80 -26 81 -44 2 -29 -29 6 -55 9 -57 6 -4
-3 41 -153 49 -165 1 -1 27 7 58 18 64 21 91 17 86 -15 -2 -17 -9 -21 -38 -19
-30 2 -31 1 -10 -6 22 -7 19 -9 -27 -20 -29 -7 -50 -17 -47 -22 3 -5 9 -30 14
-57 4 -26 11 -57 15 -69 5 -15 3 -23 -4 -23 -7 0 -9 5 -5 11 3 6 3 14 -2 18
-33 23 -91 127 -145 256 -44 109 -44 108 -106 103 -29 -3 -55 -7 -58 -10 -6
-5 72 -196 88 -216 14 -18 21 -102 8 -102 -5 0 -11 5 -13 11 -3 8 -60 13 -173
16 -191 5 -209 11 -234 77 -8 20 -12 38 -10 41 3 2 22 0 44 -5 63 -15 208 -13
202 3 -3 8 -25 11 -73 9 -38 -1 -82 2 -99 7 -26 8 -22 9 32 10 34 1 73 5 87
11 l26 9 -28 48 c-29 49 -50 58 -94 38 -10 -4 -18 -3 -18 2 0 15 91 54 160 69
77 15 317 13 370 -5z m44 -469 c-46 -63 -87 -103 -129 -125 -34 -19 -55 -22
-145 -21 -158 2 -243 40 -294 133 -30 56 -30 70 2 50 16 -10 34 -10 85 -1 89
17 195 15 279 -4 84 -19 182 -14 207 10 28 28 24 -2 -5 -42z m-22 -689 c-26
-36 -140 -170 -222 -261 -63 -70 -90 -87 -90 -57 0 18 41 65 199 227 110 113
155 149 113 91z"/>
</g>
</svg>
