<svg id="svg" version="1.1" xmlns="http://www.w3.org/2000/svg" xmlns:xlink="http://www.w3.org/1999/xlink" width="400" height="400" viewBox="0, 0, 400,400"><g id="svgg"><path id="path0" d="M121.000 111.640 C 103.872 113.424,76.952 121.369,74.626 125.325 C 73.712 126.881,75.786 127.776,77.534 126.579 C 83.427 122.544,90.499 125.559,86.008 130.192 C 84.969 131.264,84.858 131.550,85.329 131.941 C 85.639 132.198,86.005 133.172,86.143 134.104 C 86.281 135.037,86.656 137.600,86.977 139.800 C 89.319 155.856,96.490 175.280,103.220 183.800 C 114.248 197.761,129.732 202.693,151.400 199.146 C 159.586 197.806,160.064 197.503,161.595 192.673 C 162.257 190.588,162.046 190.532,158.985 191.977 C 146.504 197.875,125.344 196.761,114.881 189.655 C 98.577 178.583,87.404 143.703,96.003 130.721 C 101.222 122.842,117.969 117.964,137.800 118.546 C 171.373 119.532,184.598 129.712,180.818 151.660 C 179.125 161.496,173.823 176.730,170.245 182.043 C 168.698 184.341,168.843 184.765,170.909 183.984 C 171.619 183.715,173.550 183.384,175.200 183.248 L 178.200 183.000 179.457 180.400 C 180.148 178.970,182.545 172.400,184.783 165.800 C 191.248 146.733,193.782 142.686,200.817 140.191 C 205.925 138.379,209.734 142.895,214.661 156.600 C 215.451 158.800,217.249 163.570,218.655 167.200 C 224.455 182.170,223.958 181.368,228.891 183.741 C 233.317 185.870,233.149 185.926,231.162 182.982 C 227.161 177.054,221.160 160.314,219.625 150.800 C 216.150 129.254,231.288 118.610,265.400 118.614 C 300.001 118.618,312.226 129.446,306.253 154.800 C 301.045 176.911,289.361 191.456,274.310 194.565 C 260.982 197.317,246.429 195.393,238.047 189.770 C 235.007 187.730,234.620 187.932,236.482 190.585 C 237.207 191.618,238.442 193.574,239.226 194.932 C 244.310 203.731,273.177 204.295,287.800 195.880 C 301.726 187.866,311.156 169.146,316.354 139.200 C 317.411 133.108,317.447 133.002,318.415 133.094 C 318.957 133.146,320.114 133.202,320.988 133.218 C 321.861 133.234,322.796 133.431,323.066 133.655 C 324.818 135.109,326.810 131.898,326.941 127.404 L 327.000 125.407 324.600 124.121 C 295.591 108.574,254.054 107.097,216.200 120.267 C 200.595 125.696,200.711 125.696,184.271 120.200 C 161.236 112.498,140.145 109.645,121.000 111.640 M150.600 112.546 C 162.980 114.212,177.486 118.004,190.369 122.942 C 200.626 126.873,192.930 125.322,180.000 120.851 C 151.749 111.083,117.564 111.232,87.450 121.253 C 78.302 124.298,78.844 123.147,88.200 119.661 C 98.900 115.673,109.850 113.269,123.800 111.846 C 127.353 111.483,146.402 111.981,150.600 112.546 M276.684 112.005 C 286.807 112.777,299.834 115.481,309.522 118.819 C 313.459 120.176,312.113 120.209,307.731 118.863 C 293.963 114.634,281.507 113.042,262.200 113.046 C 253.834 113.047,250.987 112.945,252.800 112.707 C 261.152 111.613,268.655 111.393,276.684 112.005 M228.200 118.251 C 214.314 123.032,211.078 124.040,210.059 123.901 C 207.774 123.589,218.712 119.581,229.400 116.813 C 235.059 115.347,234.425 116.108,228.200 118.251 M80.230 123.552 C 80.110 123.745,79.605 124.006,79.106 124.132 C 78.232 124.352,78.227 124.340,78.976 123.780 C 79.836 123.138,80.568 123.004,80.230 123.552 M322.050 125.840 C 324.736 127.180,325.289 129.548,323.365 131.471 C 320.891 133.945,313.200 130.850,313.200 127.381 C 313.200 124.590,317.904 123.771,322.050 125.840 M326.598 127.328 C 326.140 129.621,325.143 132.400,324.778 132.400 C 324.581 132.400,324.606 131.909,324.834 131.309 C 325.063 130.709,325.223 129.224,325.192 128.009 C 325.115 125.040,325.089 125.113,326.026 125.614 C 326.694 125.971,326.803 126.299,326.598 127.328 M126.500 125.887 C 127.105 125.978,128.095 125.978,128.700 125.887 C 129.305 125.795,128.810 125.720,127.600 125.720 C 126.390 125.720,125.895 125.795,126.500 125.887 M132.700 125.897 C 134.295 125.973,136.905 125.973,138.500 125.897 C 140.095 125.821,138.790 125.759,135.600 125.759 C 132.410 125.759,131.105 125.821,132.700 125.897 M120.600 126.415 C 119.844 126.618,120.362 126.654,122.000 126.515 C 123.430 126.393,124.675 126.228,124.767 126.147 C 125.070 125.880,121.822 126.089,120.600 126.415 M143.705 126.287 C 144.314 126.379,145.214 126.377,145.705 126.282 C 146.197 126.187,145.700 126.111,144.600 126.114 C 143.500 126.117,143.097 126.195,143.705 126.287 M271.891 126.289 C 272.601 126.377,273.861 126.379,274.691 126.292 C 275.521 126.205,274.940 126.133,273.400 126.131 C 271.860 126.129,271.181 126.200,271.891 126.289 M80.872 127.161 C 78.214 128.079,77.660 128.578,78.265 129.511 C 79.110 130.816,85.600 129.392,85.600 127.902 C 85.600 126.307,84.049 126.064,80.872 127.161 M253.705 126.687 C 254.314 126.779,255.214 126.777,255.705 126.682 C 256.197 126.587,255.700 126.511,254.600 126.514 C 253.500 126.517,253.097 126.595,253.705 126.687 M315.700 126.850 C 314.856 127.711,315.135 128.351,316.700 129.144 C 319.734 130.682,322.642 130.583,322.339 128.952 C 322.063 127.462,316.749 125.780,315.700 126.850 M249.000 127.200 C 247.337 127.623,248.974 127.642,251.000 127.223 C 252.345 126.945,252.409 126.892,251.400 126.893 C 250.740 126.894,249.660 127.032,249.000 127.200 M84.172 127.555 C 84.469 128.036,83.688 128.603,81.961 129.159 C 80.451 129.645,79.032 129.396,79.450 128.719 C 80.091 127.681,83.700 126.792,84.172 127.555 M320.100 127.961 C 321.671 128.560,321.458 129.200,319.689 129.200 C 318.055 129.200,316.229 128.201,316.642 127.532 C 316.912 127.096,318.273 127.265,320.100 127.961 M244.600 128.189 C 242.452 128.897,243.297 128.924,245.800 128.228 C 246.900 127.922,247.440 127.669,247.000 127.667 C 246.560 127.664,245.480 127.899,244.600 128.189 M316.182 134.743 C 316.826 136.773,313.239 152.893,310.215 161.559 C 307.510 169.312,306.679 169.566,308.959 161.943 C 310.887 155.495,312.219 149.639,313.556 141.728 C 314.195 137.949,314.837 134.664,314.983 134.428 C 315.386 133.776,315.919 133.916,316.182 134.743 M97.000 135.857 C 94.600 140.914,96.623 155.173,101.230 165.683 C 103.483 170.821,104.493 171.719,102.841 167.115 C 99.631 158.170,97.804 147.559,98.120 139.700 C 98.343 134.144,98.141 133.451,97.000 135.857 M97.987 147.927 C 98.242 150.637,98.973 154.949,99.611 157.509 C 100.814 162.340,100.927 163.704,99.877 160.724 C 97.500 153.976,96.112 145.641,96.631 141.225 L 96.940 138.600 97.231 140.800 C 97.391 142.010,97.731 145.217,97.987 147.927 M195.445 142.487 C 194.151 143.628,192.295 145.804,191.321 147.323 C 189.151 150.709,188.629 150.538,190.365 147.010 C 192.362 142.954,194.932 140.396,197.000 140.407 C 197.602 140.410,197.219 140.924,195.445 142.487 M185.224 162.028 C 184.804 163.443,184.060 165.770,183.571 167.200 C 183.082 168.630,182.050 171.690,181.276 174.000 C 179.298 179.910,178.156 182.400,177.422 182.400 C 176.596 182.400,176.572 182.510,178.374 178.075 C 180.690 172.373,182.620 167.293,183.418 164.800 C 185.104 159.535,186.689 157.102,185.224 162.028 M109.349 171.740 C 109.490 172.147,109.972 172.957,110.419 173.540 C 110.866 174.123,111.899 175.618,112.716 176.861 C 119.063 186.532,126.635 190.024,140.027 189.458 C 154.607 188.842,161.789 185.679,166.801 177.669 C 168.120 175.560,169.193 173.556,169.184 173.217 C 169.176 172.878,168.927 173.154,168.633 173.831 C 168.338 174.508,167.561 175.678,166.906 176.431 C 166.252 177.184,165.403 178.467,165.021 179.282 C 163.063 183.457,153.511 187.805,149.660 186.275 C 148.857 185.955,146.760 185.664,145.000 185.627 C 143.240 185.591,140.810 185.428,139.600 185.265 C 138.390 185.102,136.737 185.130,135.926 185.327 C 135.049 185.539,134.007 185.536,133.353 185.318 C 132.695 185.098,131.304 185.095,129.890 185.309 C 128.170 185.569,127.189 185.527,126.289 185.154 C 125.340 184.761,125.016 184.753,124.893 185.121 C 124.102 187.494,114.816 180.303,112.442 175.480 C 111.560 173.687,108.917 170.491,109.349 171.740 M290.400 172.671 C 290.400 172.894,289.490 173.959,288.378 175.038 C 287.265 176.117,286.087 177.630,285.759 178.400 C 284.395 181.600,278.063 186.489,275.312 186.466 C 274.480 186.459,269.480 185.968,264.200 185.377 C 258.745 184.765,252.096 184.279,248.800 184.250 C 242.640 184.197,240.984 183.857,238.320 182.097 C 235.311 180.111,234.516 177.547,237.300 178.811 C 239.643 179.874,241.013 179.786,243.756 178.395 C 246.607 176.949,247.928 176.908,251.252 178.159 C 254.530 179.392,257.694 179.772,260.117 179.223 C 261.172 178.984,263.692 178.677,265.717 178.541 C 271.541 178.149,271.843 177.154,266.300 176.620 C 264.816 176.477,262.979 176.100,262.219 175.782 C 261.458 175.464,259.973 175.222,258.918 175.243 C 257.863 175.264,256.415 175.153,255.700 174.996 C 254.985 174.838,254.400 174.865,254.400 175.055 C 254.401 175.245,253.096 175.401,251.500 175.403 C 249.905 175.404,246.350 175.808,243.600 176.301 C 235.227 177.801,234.280 177.590,231.483 173.600 C 229.867 171.295,232.141 175.435,234.038 178.251 C 239.353 186.143,248.048 189.400,263.800 189.400 C 276.653 189.400,280.714 186.977,290.356 173.552 C 290.662 173.127,290.797 172.663,290.656 172.523 C 290.515 172.382,290.400 172.449,290.400 172.671 M123.600 175.762 C 123.600 175.829,124.061 176.381,124.625 176.989 C 125.963 178.433,130.712 179.608,131.988 178.811 C 132.885 178.251,132.311 177.973,129.742 177.723 C 128.454 177.597,127.130 177.274,126.800 177.004 C 126.223 176.532,123.600 175.514,123.600 175.762 M150.067 176.009 C 149.554 176.223,148.737 176.299,148.251 176.177 C 146.278 175.682,144.417 177.153,145.967 177.982 C 148.951 179.579,153.933 179.648,156.258 178.125 C 157.596 177.249,157.463 177.057,155.100 176.450 C 152.006 175.655,151.103 175.576,150.067 176.009 M272.852 177.946 C 271.862 178.598,274.804 179.178,278.170 178.994 C 281.962 178.787,283.043 178.139,279.649 178.107 C 278.340 178.095,276.398 177.972,275.334 177.835 C 274.270 177.697,273.153 177.747,272.852 177.946 M275.603 253.500 C 257.933 271.242,254.385 275.706,257.234 276.611 C 258.273 276.941,258.532 276.704,265.747 268.800 C 279.540 253.692,289.400 241.600,287.927 241.600 C 287.667 241.600,282.121 246.955,275.603 253.500 M283.940 246.872 C 275.705 257.476,259.023 275.873,257.962 275.523 C 255.697 274.776,264.177 264.714,279.394 250.092 C 284.985 244.719,286.380 243.732,283.940 246.872 " stroke="none" fill="#ae6391" fill-rule="evenodd"></path><path id="path1" d="M0.000 200.000 L 0.000 400.000 200.000 400.000 L 400.000 400.000 400.000 200.000 L 400.000 0.000 200.000 0.000 L 0.000 0.000 0.000 200.000 M185.049 49.386 C 188.964 53.894,190.517 56.590,192.371 62.100 C 193.948 66.783,193.474 66.509,190.646 61.100 C 189.351 58.625,187.057 54.732,185.546 52.450 C 184.036 50.167,182.800 48.142,182.800 47.950 C 182.800 47.190,183.568 47.681,185.049 49.386 M209.026 56.438 L 209.215 59.400 208.614 57.600 C 207.906 55.483,207.774 52.414,208.418 53.058 C 208.648 53.288,208.921 54.809,209.026 56.438 M249.200 55.853 C 243.022 58.445,241.678 59.048,240.800 59.618 C 240.250 59.975,239.058 60.557,238.151 60.910 C 237.245 61.263,235.635 62.103,234.573 62.776 C 232.260 64.243,231.080 64.437,232.235 63.161 C 234.785 60.343,245.672 55.279,249.200 55.269 L 250.600 55.265 249.200 55.853 M145.441 59.220 C 146.373 59.671,147.336 60.282,147.582 60.578 C 148.179 61.298,145.431 60.373,143.530 59.214 C 141.710 58.104,143.147 58.109,145.441 59.220 M171.597 63.974 C 175.642 65.972,179.153 68.491,182.177 71.563 C 185.503 74.944,184.839 74.874,180.184 71.356 C 177.993 69.700,174.355 67.088,172.100 65.552 C 168.364 63.008,167.613 62.400,168.204 62.400 C 168.316 62.400,169.843 63.109,171.597 63.974 M259.780 66.367 C 259.905 66.570,259.420 66.858,258.703 67.008 C 257.987 67.158,254.100 68.082,250.066 69.062 C 246.032 70.042,242.522 70.766,242.266 70.670 C 240.938 70.175,250.705 67.037,255.400 66.451 C 259.334 65.960,259.526 65.956,259.780 66.367 M160.344 70.771 C 161.175 71.195,162.783 72.275,163.916 73.171 C 166.504 75.217,167.200 75.265,167.200 73.400 C 167.200 71.529,167.224 71.541,170.577 75.095 C 173.443 78.133,173.516 78.180,174.556 77.624 C 175.546 77.094,175.738 77.144,177.508 78.401 C 178.548 79.140,181.110 80.638,183.200 81.730 C 186.617 83.514,191.741 87.310,193.762 89.554 C 194.656 90.547,195.200 90.640,195.200 89.800 C 195.200 88.863,195.895 89.089,197.070 90.407 C 198.598 92.122,199.011 91.440,198.402 88.211 C 197.815 85.101,198.073 84.590,199.408 86.216 C 200.933 88.072,201.263 87.065,200.988 81.400 L 200.755 76.600 201.545 77.504 C 202.466 78.558,203.858 84.128,204.247 88.313 C 204.602 92.143,204.848 92.188,207.719 88.949 C 215.243 80.463,221.783 76.029,216.860 82.751 C 211.741 89.740,211.539 90.824,215.985 87.443 C 222.575 82.432,230.672 78.629,234.536 78.730 C 235.821 78.764,238.513 78.433,240.518 77.996 C 245.064 77.003,245.624 77.004,245.884 78.000 C 246.147 79.004,246.885 79.004,250.064 77.997 C 251.459 77.555,254.997 76.745,257.927 76.197 C 265.516 74.777,272.681 74.903,266.699 76.352 C 263.857 77.040,260.400 78.406,260.400 78.840 C 260.400 79.077,262.197 79.121,265.118 78.956 C 269.999 78.680,275.200 79.012,275.200 79.600 C 275.200 79.784,274.291 80.238,273.180 80.607 C 270.356 81.545,270.852 82.062,275.352 82.870 C 279.971 83.699,286.656 85.780,288.492 86.959 L 289.800 87.800 284.600 87.898 C 276.657 88.047,276.277 88.317,280.547 90.779 C 281.676 91.430,284.310 93.229,286.400 94.778 C 290.101 97.520,293.728 99.262,296.904 99.824 C 300.124 100.394,299.079 101.271,295.181 101.271 C 293.651 101.271,292.400 101.419,292.400 101.600 C 292.400 102.088,294.613 103.861,296.735 105.071 C 300.684 107.324,300.715 108.178,296.833 107.726 C 294.816 107.492,294.686 107.527,294.961 108.237 C 295.123 108.657,295.361 109.522,295.490 110.159 L 295.724 111.318 293.962 111.098 C 292.993 110.977,290.580 110.593,288.600 110.244 C 286.620 109.895,282.570 109.333,279.600 108.995 C 276.630 108.657,272.490 108.186,270.400 107.948 C 263.080 107.116,245.107 107.970,238.000 109.488 C 234.037 110.334,230.032 110.592,229.476 110.036 C 229.236 109.796,228.468 109.600,227.769 109.600 C 226.180 109.600,225.272 108.677,226.000 107.800 C 226.673 106.989,225.822 106.998,223.377 107.829 C 221.074 108.610,220.290 108.376,220.634 107.009 C 220.780 106.425,220.715 106.000,220.479 106.000 C 219.895 106.000,216.800 108.079,216.800 108.471 C 216.800 108.652,216.506 108.800,216.147 108.800 C 215.788 108.800,214.933 109.137,214.247 109.549 C 211.077 111.451,209.906 110.451,211.378 107.100 C 211.858 106.008,210.752 106.232,208.846 107.613 C 207.134 108.853,204.800 109.605,204.800 108.917 C 204.800 108.138,201.895 107.571,201.186 108.212 C 200.829 108.536,200.350 108.800,200.122 108.800 C 199.894 108.800,199.261 109.151,198.715 109.581 C 197.801 110.300,197.652 110.312,196.828 109.734 C 196.169 109.273,195.815 109.225,195.486 109.554 C 194.888 110.152,194.001 110.121,193.994 109.500 C 193.980 108.383,193.300 107.819,192.633 108.373 C 192.287 108.660,191.644 108.800,191.204 108.685 C 190.537 108.511,190.442 108.627,190.632 109.384 C 191.165 111.510,188.609 110.813,187.165 108.438 C 186.536 107.404,186.244 107.251,185.270 107.446 C 184.510 107.598,183.554 107.389,182.459 106.830 C 180.853 106.011,180.800 106.008,180.800 106.749 C 180.800 108.749,177.932 107.855,175.200 105.002 C 171.945 101.604,171.489 101.200,170.908 101.200 C 170.217 101.200,170.170 101.086,172.358 104.722 C 174.823 108.816,173.651 109.634,170.115 106.289 L 168.831 105.073 168.115 105.937 L 167.400 106.801 164.974 105.101 C 163.640 104.165,161.660 102.661,160.574 101.758 C 157.569 99.259,156.027 98.555,156.825 100.047 C 157.615 101.522,156.516 102.174,154.789 101.256 C 154.025 100.850,152.695 100.287,151.833 100.006 C 150.970 99.724,149.710 99.179,149.033 98.795 C 148.355 98.410,147.170 97.983,146.400 97.844 L 145.000 97.592 146.200 98.582 C 146.860 99.126,147.566 99.578,147.769 99.586 C 148.890 99.629,153.225 103.028,153.116 103.779 C 152.911 105.200,151.185 105.437,149.478 104.278 C 147.716 103.083,139.743 100.400,137.952 100.400 L 136.708 100.400 137.391 101.443 C 138.326 102.870,137.717 103.365,135.104 103.302 C 132.256 103.233,131.509 103.484,131.803 104.410 C 132.113 105.385,130.529 106.440,128.507 106.607 C 126.574 106.766,122.084 107.784,119.005 108.762 C 117.682 109.182,115.160 109.737,113.400 109.996 C 110.214 110.465,101.189 112.387,98.264 113.220 C 95.476 114.014,95.034 112.966,97.230 110.770 C 98.231 109.769,98.216 108.800,97.200 108.800 C 95.361 108.800,97.315 105.959,100.412 104.129 C 102.071 103.149,101.898 102.499,99.734 101.572 C 97.407 100.574,97.780 100.085,101.242 99.592 C 107.595 98.689,112.670 95.600,107.800 95.600 C 105.006 95.600,105.305 95.066,110.343 91.046 C 113.077 88.864,113.215 88.679,112.607 88.007 C 111.662 86.963,113.677 85.441,120.600 81.970 C 123.680 80.425,126.470 78.998,126.800 78.798 C 127.130 78.598,128.441 78.150,129.714 77.802 C 132.370 77.076,132.390 76.609,129.781 76.218 C 127.529 75.880,127.622 75.223,130.030 74.449 C 134.303 73.077,146.892 73.885,153.997 75.987 C 157.163 76.923,157.236 75.968,154.200 73.347 C 151.203 70.760,151.925 70.098,156.300 71.421 C 157.036 71.644,157.200 71.539,157.200 70.847 C 157.200 69.761,158.312 69.735,160.344 70.771 M151.340 111.362 C 164.947 113.329,172.185 115.172,189.200 121.003 C 199.497 124.532,201.922 124.493,212.591 120.628 C 251.013 106.710,286.507 106.898,320.292 121.199 C 328.383 124.623,328.933 125.464,327.094 131.600 C 325.981 135.315,323.504 136.366,319.130 134.978 C 318.167 134.672,317.751 135.660,317.006 140.027 C 313.405 161.124,305.396 181.126,296.900 190.238 C 286.694 201.183,267.024 205.680,247.976 201.422 C 241.462 199.966,241.128 199.740,237.324 194.200 C 233.355 188.419,230.481 185.587,227.420 184.442 C 224.187 183.232,222.198 181.777,221.460 180.082 C 220.522 177.925,218.135 171.344,216.209 165.600 C 208.966 144.006,204.989 138.793,198.369 142.216 C 194.164 144.391,189.875 151.876,186.691 162.600 C 185.816 165.547,181.007 179.109,180.086 181.225 C 178.905 183.942,178.285 184.400,175.786 184.400 C 170.646 184.400,165.446 187.906,163.263 192.844 C 160.412 199.293,160.583 199.130,155.125 200.565 C 143.394 203.649,127.704 202.613,115.946 197.979 C 110.211 195.718,103.948 189.671,98.652 181.282 C 93.465 173.066,87.098 153.611,84.617 138.400 C 84.106 135.269,83.743 135.000,80.034 135.000 C 75.748 135.000,74.821 133.748,73.323 125.931 C 72.553 121.912,103.362 112.320,122.400 110.651 C 126.846 110.261,147.181 110.761,151.340 111.362 M126.600 119.873 C 108.850 121.410,97.577 126.949,95.405 135.200 C 90.874 152.409,102.509 181.187,117.549 189.970 C 128.127 196.148,149.541 196.108,160.186 189.891 C 168.526 185.021,171.872 179.304,177.751 159.886 C 185.327 134.860,176.294 123.200,147.000 120.191 C 141.995 119.677,130.866 119.504,126.600 119.873 M254.200 120.045 C 226.116 122.673,216.180 134.094,222.166 156.868 C 227.342 176.556,232.008 184.855,240.862 190.116 C 251.115 196.209,272.152 196.144,283.004 189.986 C 301.861 179.285,313.456 140.387,301.306 128.588 C 294.522 121.999,273.692 118.221,254.200 120.045 M147.200 125.418 C 166.051 127.571,175.623 133.917,176.827 145.061 L 177.265 149.123 175.232 156.461 C 170.378 173.988,169.558 176.104,165.740 180.968 C 158.011 190.815,133.575 194.235,121.716 187.128 C 118.796 185.379,114.024 180.557,111.718 177.027 C 110.702 175.472,109.473 173.750,108.987 173.200 C 107.813 171.872,104.026 163.000,100.980 154.443 C 100.476 153.028,100.521 154.462,101.053 156.802 C 102.468 163.018,104.294 168.302,107.173 174.507 C 109.470 179.458,109.311 180.549,106.713 177.672 C 102.807 173.349,98.224 162.485,95.820 151.851 C 94.436 145.731,94.869 137.080,96.708 134.087 C 99.057 130.264,100.115 130.833,99.349 135.507 C 98.685 139.559,98.697 143.302,99.389 148.143 C 100.081 152.985,100.571 153.751,100.192 149.400 C 99.323 139.402,104.169 130.746,112.400 127.595 C 119.592 124.841,134.166 123.929,147.200 125.418 M276.058 125.217 C 300.068 127.635,306.283 141.977,294.419 167.594 C 287.275 183.021,278.157 190.304,265.474 190.714 C 244.915 191.378,232.971 184.431,228.780 169.374 C 228.294 167.628,226.944 162.870,225.780 158.800 C 222.712 148.075,222.639 143.543,225.451 138.377 C 230.664 128.800,253.266 122.922,276.058 125.217 M82.234 142.105 C 81.694 144.866,77.200 150.038,77.200 147.897 C 77.200 147.441,80.097 141.392,80.963 140.039 C 81.528 139.157,82.501 140.738,82.234 142.105 M303.995 147.490 C 303.517 151.485,302.238 156.732,301.594 157.333 C 301.073 157.820,301.127 157.368,302.058 153.400 C 302.264 152.520,302.690 149.820,303.003 147.400 C 303.316 144.980,303.590 142.910,303.612 142.800 C 303.633 142.690,303.812 143.001,304.009 143.490 C 304.221 144.018,304.216 145.647,303.995 147.490 M202.362 148.500 C 205.743 151.974,209.188 160.503,209.188 165.400 C 209.188 168.080,208.918 168.383,206.163 168.803 C 204.863 169.001,202.916 169.441,201.836 169.781 C 200.756 170.122,199.136 170.406,198.236 170.414 C 196.616 170.428,196.610 170.434,197.600 171.000 C 198.906 171.746,199.833 171.736,203.747 170.931 C 208.307 169.993,210.796 170.766,210.248 172.950 C 209.778 174.826,207.397 175.818,201.492 176.599 C 200.355 176.749,199.686 177.015,199.835 177.257 C 200.136 177.743,203.230 177.403,206.459 176.529 C 209.515 175.702,211.000 176.315,211.000 178.404 C 211.000 182.294,200.882 183.805,192.077 181.230 C 190.675 180.820,189.456 181.043,189.826 181.642 C 189.948 181.839,190.547 182.000,191.157 182.000 C 191.767 182.000,193.602 182.699,195.233 183.554 C 199.284 185.676,200.335 185.853,202.448 184.775 C 207.434 182.232,212.285 181.573,211.208 183.586 C 209.792 186.230,201.074 188.204,195.373 187.169 C 184.789 185.249,182.195 183.663,184.034 180.232 C 184.949 178.526,185.905 175.865,188.649 167.400 C 191.240 159.406,191.415 158.907,192.714 155.800 C 196.501 146.743,198.892 144.934,202.362 148.500 M81.013 154.593 C 81.590 156.725,81.629 157.463,81.242 158.998 C 80.760 160.913,80.894 161.600,81.750 161.600 C 83.237 161.600,84.319 168.810,84.390 179.200 C 84.404 181.195,84.512 181.461,85.549 182.051 C 86.518 182.602,86.730 183.029,86.938 184.851 C 87.607 190.723,88.044 192.109,89.422 192.737 C 89.982 192.992,90.400 193.523,90.400 193.977 C 90.400 194.414,90.758 194.963,91.195 195.197 C 92.358 195.820,92.536 197.160,91.821 199.918 C 90.907 203.444,90.752 205.600,91.411 205.600 C 91.705 205.600,92.060 205.240,92.200 204.800 C 93.027 202.194,94.538 205.629,94.487 210.000 C 94.448 213.253,94.658 214.000,95.607 214.000 C 96.021 214.000,96.538 214.315,96.754 214.700 C 97.111 215.333,97.277 215.276,98.493 214.100 C 99.233 213.385,100.201 212.800,100.644 212.800 C 102.496 212.800,104.209 217.195,103.019 218.894 C 101.303 221.344,104.597 222.887,107.246 220.876 C 110.632 218.305,112.725 218.954,112.156 222.397 L 111.758 224.800 113.521 224.800 C 114.818 224.800,115.599 224.536,116.473 223.800 C 118.740 221.893,123.200 222.565,123.200 224.814 C 123.200 226.401,123.680 226.312,125.839 224.321 C 128.636 221.743,130.354 224.110,128.566 228.076 C 127.669 230.065,127.975 230.288,130.180 229.251 C 131.176 228.783,132.300 228.400,132.678 228.400 C 133.055 228.400,134.722 226.959,136.382 225.198 C 140.038 221.319,143.200 220.467,143.200 223.360 C 143.200 224.662,143.264 224.721,144.700 224.739 C 147.992 224.780,150.092 225.265,150.292 226.031 C 150.399 226.439,150.845 226.887,151.284 227.027 C 151.756 227.177,152.485 228.200,153.075 229.540 C 154.807 233.479,155.327 234.329,156.260 234.755 C 157.371 235.261,157.720 234.818,157.355 233.364 L 157.086 232.292 158.943 232.571 C 161.054 232.887,161.279 232.487,160.186 230.372 C 155.919 222.122,156.495 215.710,162.500 204.600 C 164.533 200.839,167.283 194.915,167.793 193.200 C 169.533 187.343,178.444 185.816,191.200 189.189 C 201.630 191.947,201.026 191.877,203.900 190.659 C 205.275 190.077,207.525 189.125,208.900 188.543 C 217.279 185.002,224.859 184.676,229.367 187.661 C 235.907 191.993,245.177 212.225,243.612 218.750 C 242.663 222.707,238.527 228.492,234.385 231.658 C 232.507 233.093,233.133 233.493,235.893 232.623 C 238.207 231.894,239.238 231.044,241.955 227.627 C 243.124 226.157,243.467 225.953,244.449 226.150 C 245.150 226.290,246.292 226.075,247.425 225.589 L 249.263 224.801 250.331 225.925 C 250.919 226.542,252.090 227.802,252.934 228.724 C 254.692 230.645,255.200 230.802,255.200 229.425 C 255.200 228.619,255.383 228.462,256.253 228.525 C 257.264 228.597,257.307 228.515,257.353 226.435 C 257.419 223.412,257.844 223.520,261.125 227.393 C 264.545 231.431,264.720 231.485,264.705 228.500 C 264.677 222.972,266.661 220.963,268.850 224.300 C 269.675 225.557,270.035 225.785,271.074 225.704 C 272.027 225.631,272.471 225.849,272.994 226.647 C 273.922 228.063,274.497 227.360,273.928 225.506 C 273.188 223.096,274.974 221.926,277.109 223.421 C 277.714 223.845,278.205 223.925,278.655 223.673 C 279.017 223.471,279.623 223.386,280.001 223.484 C 280.534 223.624,280.790 223.262,281.138 221.880 C 281.437 220.691,281.843 220.030,282.356 219.896 C 283.247 219.663,286.400 220.966,286.400 221.566 C 286.400 221.789,286.783 222.177,287.252 222.428 C 288.076 222.869,288.095 222.827,287.838 221.111 C 287.500 218.863,287.835 218.000,289.043 218.000 C 289.840 218.000,290.000 217.799,290.000 216.800 C 290.000 215.026,291.696 215.141,293.647 217.046 C 295.371 218.730,296.141 218.557,295.768 216.571 C 295.345 214.313,295.820 213.200,297.208 213.200 C 298.295 213.200,298.400 213.082,298.400 211.849 C 298.400 209.079,300.621 208.836,301.605 211.498 C 302.787 214.698,303.897 214.908,303.200 211.800 C 302.849 210.232,302.880 209.775,303.376 209.227 C 303.708 208.860,304.128 207.849,304.311 206.980 C 304.605 205.575,304.772 205.400,305.813 205.400 C 306.835 205.400,307.015 205.223,307.236 204.000 C 307.376 203.230,307.689 202.109,307.932 201.509 C 308.175 200.909,308.582 199.199,308.836 197.709 C 309.366 194.605,309.715 194.000,310.815 194.288 C 311.512 194.470,311.600 194.285,311.600 192.628 C 311.600 191.151,311.809 190.568,312.600 189.835 C 313.445 189.051,313.600 188.549,313.600 186.586 C 313.600 185.236,313.823 183.999,314.132 183.631 C 315.341 182.198,316.109 179.230,315.594 177.986 C 315.327 177.340,315.194 176.225,315.299 175.508 C 315.417 174.701,315.248 173.834,314.854 173.234 C 314.504 172.700,314.189 171.349,314.153 170.231 C 314.117 169.114,313.780 167.264,313.405 166.121 C 312.487 163.327,313.909 158.380,315.337 159.400 C 315.645 159.620,317.005 160.575,318.359 161.522 C 321.002 163.370,321.159 164.000,318.976 164.000 C 316.792 164.000,318.003 166.219,321.669 168.935 C 323.562 170.338,323.573 170.633,321.759 171.391 L 320.317 171.994 321.178 173.297 C 324.805 178.790,326.243 184.685,323.846 184.235 C 320.820 183.667,321.923 192.208,325.828 199.582 C 327.233 202.235,327.177 203.244,325.669 202.437 C 324.053 201.572,323.973 201.796,324.253 206.400 C 324.537 211.071,324.405 211.544,323.376 209.554 C 322.561 207.978,322.402 208.181,320.829 212.800 C 318.425 219.863,316.095 222.470,316.629 217.500 C 317.164 212.526,316.696 212.475,314.127 217.232 C 313.000 219.318,312.527 219.871,312.141 219.551 C 311.121 218.705,309.874 221.447,308.797 226.900 C 308.316 229.339,307.775 229.837,307.368 228.216 C 306.877 226.260,306.163 226.259,305.416 228.213 C 304.861 229.667,304.612 229.942,304.178 229.582 C 303.322 228.871,302.888 229.439,302.402 231.907 C 301.403 236.971,300.844 238.400,299.865 238.400 C 299.187 238.400,298.518 239.055,297.264 240.949 C 293.915 246.007,293.225 245.924,293.589 240.507 C 293.806 237.270,293.964 236.678,294.873 235.707 C 296.369 234.108,297.389 232.000,296.667 232.000 C 295.368 232.000,292.348 235.251,292.596 236.382 C 292.928 237.895,292.232 239.463,290.279 241.598 C 289.356 242.607,286.440 246.120,283.800 249.404 C 277.791 256.879,272.359 263.169,264.700 271.522 C 258.113 278.707,257.298 279.171,255.503 276.756 C 253.951 274.667,256.643 271.329,274.462 253.249 C 281.265 246.346,286.728 240.595,286.602 240.468 C 286.475 240.342,285.921 240.725,285.370 241.319 C 284.099 242.690,282.968 242.723,282.636 241.400 C 282.498 240.850,282.149 240.400,281.860 240.400 C 281.571 240.400,281.094 240.850,280.800 241.400 C 280.468 242.021,279.917 242.400,279.346 242.400 C 278.259 242.400,277.759 243.221,277.169 245.969 C 276.662 248.333,275.920 248.595,274.524 246.900 C 273.484 245.637,272.817 246.107,272.806 248.113 C 272.798 249.676,271.753 252.000,271.060 252.000 C 270.740 252.000,270.088 252.663,269.609 253.474 C 268.624 255.144,268.017 254.783,268.006 252.520 C 267.989 248.918,266.755 246.026,265.795 247.339 C 265.069 248.333,265.022 248.284,262.857 244.268 C 260.549 239.986,260.063 239.469,258.676 239.817 C 258.125 239.955,257.282 239.858,256.803 239.602 C 255.393 238.847,255.499 239.301,257.442 242.338 C 259.288 245.222,259.555 246.797,258.097 246.196 C 255.928 245.303,255.805 245.439,257.211 247.168 C 263.677 255.120,264.960 257.247,263.708 257.948 C 263.103 258.286,263.077 258.506,263.508 259.696 C 264.367 262.073,264.311 262.174,259.320 267.300 C 255.745 270.972,256.095 270.917,252.236 268.398 C 240.779 260.919,217.663 255.914,205.000 258.171 C 193.086 260.295,174.771 265.672,167.200 269.270 C 161.590 271.936,153.278 275.988,148.600 278.337 C 139.801 282.756,139.692 282.800,137.632 282.800 C 131.886 282.800,130.925 280.570,133.600 273.449 C 135.525 268.325,135.507 268.706,133.800 269.026 C 132.509 269.269,132.400 269.213,132.400 268.307 C 132.400 266.945,135.284 258.197,136.570 255.660 C 137.688 253.452,137.644 252.800,136.376 252.800 C 134.896 252.800,135.541 250.942,138.611 246.358 C 140.671 243.281,141.492 241.732,141.211 241.451 C 140.505 240.745,140.754 239.781,142.100 238.001 C 142.815 237.056,143.641 235.958,143.936 235.560 C 144.388 234.952,144.378 234.704,143.874 233.984 C 143.448 233.376,143.372 232.796,143.608 231.971 C 144.821 227.744,139.390 232.648,137.500 237.487 C 135.063 243.726,131.167 249.200,129.164 249.200 C 128.200 249.200,128.183 249.321,129.761 245.000 C 130.747 242.299,131.120 239.581,130.500 239.618 C 126.382 239.860,124.984 241.407,123.423 247.450 C 121.962 253.104,120.453 256.000,118.969 256.000 C 118.262 256.000,117.776 248.084,118.307 245.223 C 118.851 242.295,118.374 241.925,116.953 244.173 C 115.046 247.192,114.660 246.618,115.185 241.543 C 115.604 237.494,115.339 236.588,114.072 237.735 C 112.339 239.303,111.073 242.731,110.832 246.509 C 110.557 250.806,109.985 251.372,108.747 248.573 C 107.812 246.460,107.594 243.017,108.128 238.828 C 108.541 235.590,107.842 235.940,105.941 239.923 C 104.769 242.379,103.600 242.778,103.600 240.724 C 103.600 240.148,102.704 240.380,102.144 241.100 C 100.871 242.738,99.409 238.089,99.441 232.500 C 99.468 227.721,98.150 228.142,96.373 233.481 C 95.912 234.866,95.361 236.000,95.148 236.000 C 93.988 236.000,92.322 234.620,91.747 233.185 C 91.319 232.114,90.866 231.600,90.350 231.600 C 89.491 231.600,88.583 229.867,88.204 227.500 C 87.958 225.966,87.347 225.613,86.463 226.497 C 85.823 227.137,85.215 226.273,85.206 224.709 C 85.203 224.109,84.734 222.399,84.164 220.909 C 83.368 218.829,83.094 217.284,82.983 214.252 C 82.903 212.081,82.744 210.211,82.630 210.097 C 82.390 209.857,81.600 211.783,81.600 212.607 C 81.600 213.905,80.672 215.128,79.563 215.291 C 77.943 215.529,77.752 215.311,77.019 212.399 C 76.659 210.970,76.108 209.135,75.795 208.322 C 74.663 205.390,74.247 200.016,74.997 198.000 C 76.139 194.926,76.166 194.507,75.239 194.212 C 74.230 193.892,74.201 193.545,75.047 191.909 C 75.512 191.009,75.628 190.096,75.458 188.662 C 75.328 187.565,75.414 185.903,75.649 184.969 C 76.026 183.473,75.977 183.136,75.233 182.130 C 74.499 181.137,74.436 180.736,74.751 179.052 C 74.950 177.987,75.017 176.403,74.900 175.532 C 74.767 174.538,74.956 173.159,75.407 171.832 C 76.071 169.878,76.077 169.645,75.483 168.797 C 74.911 167.981,74.904 167.725,75.417 166.497 C 76.069 164.937,75.905 164.400,74.776 164.400 C 73.685 164.400,73.786 164.064,75.600 161.649 C 77.496 159.126,77.719 157.854,76.200 158.236 C 74.774 158.594,74.897 157.697,76.655 154.908 C 79.481 150.427,79.878 150.398,81.013 154.593 M215.585 199.744 C 214.587 200.013,212.517 200.930,210.985 201.781 C 209.453 202.632,207.660 203.581,207.000 203.890 C 206.340 204.198,205.530 204.590,205.200 204.759 C 204.870 204.929,204.109 205.952,203.509 207.034 C 201.285 211.043,202.145 214.466,207.267 222.000 C 209.660 225.520,211.173 228.763,212.476 233.171 C 213.154 235.463,213.883 235.698,214.199 233.726 C 214.564 231.447,214.824 231.164,217.248 230.414 C 220.254 229.484,222.742 227.698,226.859 223.515 C 230.592 219.721,231.269 219.436,233.187 220.854 C 236.540 223.332,236.520 218.208,233.150 211.428 C 228.350 201.767,222.502 197.878,215.585 199.744 M177.342 201.004 C 171.532 203.899,162.162 216.075,163.071 219.550 C 163.331 220.546,163.532 220.577,164.576 219.787 C 166.085 218.646,167.052 219.045,168.371 221.349 C 170.104 224.379,172.380 226.309,177.040 228.700 C 181.747 231.116,181.836 231.202,182.209 233.705 C 182.651 236.675,183.126 236.597,185.303 233.200 C 186.727 230.979,190.521 226.431,191.372 225.927 C 192.589 225.206,195.620 220.029,196.229 217.633 C 198.738 207.754,186.109 196.635,177.342 201.004 M221.578 262.995 C 223.135 263.323,225.351 264.069,226.504 264.653 C 227.657 265.237,230.039 266.332,231.798 267.085 C 233.557 267.838,235.301 268.729,235.673 269.066 C 236.157 269.504,236.785 269.607,237.875 269.427 C 240.260 269.033,245.844 272.071,256.576 279.600 C 261.131 282.796,267.211 287.978,267.598 288.994 C 268.033 290.139,267.514 294.140,266.821 294.974 C 265.476 296.595,260.644 294.214,255.377 289.333 C 254.113 288.162,251.025 286.022,247.200 283.668 C 245.990 282.923,240.846 280.290,235.769 277.817 L 226.538 273.320 217.569 272.866 C 212.533 272.611,207.979 272.558,207.184 272.745 C 204.071 273.477,200.174 275.294,199.169 276.483 C 198.170 277.663,198.091 277.685,196.677 277.173 C 195.334 276.688,195.030 276.731,192.908 277.710 C 189.365 279.344,185.381 280.300,181.180 280.523 C 176.853 280.753,171.443 282.306,170.314 283.643 C 169.831 284.214,169.059 284.485,167.714 284.555 C 166.405 284.623,164.567 285.246,161.902 286.527 C 159.757 287.557,157.858 288.400,157.680 288.400 C 157.502 288.400,156.491 288.949,155.433 289.620 C 153.748 290.689,149.640 292.946,146.004 294.800 C 145.357 295.130,144.866 295.670,144.914 296.000 C 145.047 296.927,142.351 297.015,141.263 296.120 C 140.183 295.231,139.207 291.112,139.839 290.110 C 140.846 288.514,165.584 276.589,178.000 271.714 C 186.257 268.472,195.571 265.600,197.826 265.600 C 198.604 265.600,199.758 265.332,200.391 265.005 C 201.713 264.321,208.055 263.274,213.600 262.824 C 215.690 262.655,217.703 262.490,218.074 262.458 C 218.444 262.426,220.021 262.668,221.578 262.995 M157.437 266.600 C 156.668 267.773,156.751 267.798,158.706 266.981 C 159.876 266.493,160.062 266.284,159.593 265.987 C 158.645 265.388,158.137 265.532,157.437 266.600 M145.809 273.042 C 145.127 274.083,145.391 274.212,146.974 273.610 C 148.195 273.146,148.301 272.572,147.218 272.289 C 146.690 272.151,146.233 272.395,145.809 273.042 M268.130 274.100 C 271.064 281.915,271.257 289.622,268.402 285.003 C 267.913 284.212,266.453 282.268,265.157 280.683 C 262.345 277.242,262.311 276.916,264.500 274.374 C 266.601 271.935,267.297 271.882,268.130 274.100 M223.516 278.413 C 233.838 279.510,238.374 281.454,250.200 289.848 C 253.358 292.089,259.125 298.374,259.431 299.907 C 259.899 302.255,259.236 306.296,258.175 307.556 C 257.648 308.184,256.859 309.530,256.422 310.548 C 255.556 312.569,255.057 312.828,254.400 311.600 C 253.741 310.368,253.297 310.640,252.989 312.466 C 252.834 313.382,252.278 314.939,251.754 315.925 C 251.229 316.912,250.800 317.934,250.800 318.198 C 250.800 318.461,250.448 318.995,250.018 319.384 C 249.562 319.796,249.132 320.867,248.988 321.946 C 248.600 324.849,248.503 325.018,247.660 324.254 C 246.597 323.292,246.545 323.338,245.055 326.563 C 244.302 328.192,243.306 329.729,242.840 329.978 C 242.375 330.227,241.381 331.650,240.631 333.139 C 239.011 336.356,238.264 337.117,237.419 336.415 C 236.936 336.015,236.648 336.285,235.719 338.010 C 233.310 342.482,230.773 346.050,229.667 346.522 C 229.050 346.785,227.434 348.294,226.075 349.876 C 222.381 354.176,221.671 354.579,220.620 352.974 C 219.996 352.021,219.993 351.747,220.590 349.124 C 221.316 345.932,221.177 345.297,220.182 347.263 C 218.091 351.395,216.800 352.067,216.800 349.024 C 216.800 346.600,216.239 345.881,215.345 347.157 C 215.020 347.620,214.504 348.000,214.198 348.000 C 213.891 348.000,213.113 348.564,212.469 349.254 C 211.153 350.661,210.584 350.546,210.199 348.795 C 209.770 346.844,208.942 347.417,207.735 350.500 C 206.493 353.672,206.331 357.088,207.239 360.932 C 208.267 365.284,206.443 364.337,203.827 359.161 C 202.003 355.552,201.200 354.813,201.200 356.743 C 201.200 359.780,197.582 356.904,193.759 350.828 C 190.903 346.288,190.020 345.200,189.191 345.200 C 188.606 345.200,188.085 344.572,187.284 342.900 C 185.773 339.748,185.435 339.989,185.182 344.400 C 184.780 351.394,182.850 351.227,179.800 343.935 C 178.423 340.643,177.600 339.986,177.600 342.179 C 177.600 344.392,176.667 344.428,174.469 342.298 C 170.856 338.796,169.988 338.700,169.045 341.700 C 168.682 342.854,168.267 342.514,166.843 339.895 C 166.096 338.523,165.234 337.130,164.928 336.800 C 164.621 336.470,163.800 335.316,163.104 334.235 C 162.408 333.154,161.065 331.724,160.119 331.058 C 159.174 330.391,158.400 329.695,158.400 329.510 C 158.400 329.324,157.778 328.806,157.018 328.357 C 156.257 327.909,155.529 327.206,155.399 326.796 C 155.269 326.386,154.766 325.994,154.281 325.925 C 153.478 325.811,153.378 325.508,153.154 322.486 C 152.948 319.713,152.664 318.707,151.416 316.324 C 149.847 313.329,148.800 309.980,148.800 307.954 C 148.800 306.327,148.140 305.200,147.186 305.200 C 146.174 305.200,146.194 304.926,147.412 302.126 C 148.079 300.594,148.864 299.517,149.712 298.971 C 152.294 297.309,157.872 295.215,160.820 294.801 C 164.684 294.258,164.708 294.250,169.400 291.985 C 171.600 290.923,175.740 289.215,178.600 288.190 C 184.345 286.129,188.969 284.448,196.200 281.791 C 204.750 278.648,214.449 277.449,223.516 278.413 M221.200 281.080 C 219.286 281.468,215.593 281.714,211.000 281.758 C 201.571 281.848,194.364 284.206,186.494 289.774 C 181.891 293.030,174.589 295.246,168.000 295.387 C 156.366 295.634,149.452 300.879,152.533 307.120 C 152.827 307.714,153.296 309.280,153.576 310.600 C 154.400 314.482,154.736 315.052,158.455 318.878 C 160.405 320.885,162.000 322.678,162.000 322.863 C 162.000 323.520,162.754 323.184,163.940 321.999 C 165.207 320.732,165.683 320.740,168.299 322.076 C 169.553 322.715,169.841 322.228,168.983 320.918 C 168.584 320.310,168.134 319.179,167.982 318.406 C 167.830 317.633,167.572 316.505,167.409 315.900 C 166.963 314.242,169.304 314.267,170.163 315.929 C 170.484 316.550,171.029 317.292,171.374 317.578 C 171.718 317.864,172.003 318.391,172.006 318.749 C 172.020 320.237,172.758 320.661,173.552 319.638 C 174.685 318.175,177.194 320.150,177.199 322.509 C 177.199 322.898,177.630 323.413,178.156 323.653 C 178.682 323.892,179.320 324.546,179.575 325.105 C 180.146 326.358,180.698 325.891,180.871 324.007 C 181.132 321.189,184.215 321.319,185.018 324.182 C 185.249 325.004,185.789 325.870,186.219 326.105 C 187.292 326.691,187.489 327.065,187.793 329.089 C 188.072 330.951,188.831 331.604,189.792 330.807 C 190.273 330.407,190.565 330.647,191.487 332.198 C 193.523 335.627,193.573 335.651,193.587 333.180 C 193.614 328.543,195.466 328.792,197.224 333.668 L 198.547 337.336 199.267 334.368 C 199.663 332.736,199.990 331.099,199.993 330.731 C 200.002 329.887,201.898 327.600,202.590 327.600 C 203.694 327.600,205.989 333.716,206.006 336.704 C 206.027 340.509,207.410 338.996,207.779 334.765 C 207.974 332.527,208.277 331.361,208.830 330.712 L 209.608 329.800 210.733 331.100 C 211.352 331.815,211.980 332.400,212.129 332.400 C 212.278 332.400,212.401 331.815,212.402 331.100 C 212.408 327.601,213.572 326.023,214.991 327.591 C 216.043 328.752,216.400 328.240,216.400 325.572 L 216.400 323.191 217.942 323.437 L 219.484 323.684 219.968 321.742 C 221.299 316.401,224.210 316.913,225.396 322.695 C 226.063 325.946,227.097 323.237,226.626 319.472 C 226.019 314.612,229.009 313.686,230.598 318.241 C 231.056 319.556,231.299 319.782,232.150 319.688 C 232.860 319.609,233.303 319.845,233.645 320.484 C 234.125 321.381,234.137 321.375,234.592 320.023 C 234.846 319.270,235.401 318.461,235.827 318.227 C 236.942 317.611,237.187 317.160,237.194 315.709 C 237.202 314.034,238.843 312.785,240.048 313.537 C 240.935 314.091,240.994 313.990,241.382 311.231 C 241.736 308.719,243.561 305.601,244.677 305.600 C 245.419 305.600,245.573 305.344,245.677 303.941 C 245.832 301.845,246.697 301.196,248.239 302.018 C 249.189 302.525,249.356 302.525,249.525 302.023 C 249.854 301.041,251.524 299.600,252.333 299.600 C 254.007 299.600,254.102 298.595,252.611 296.642 C 251.835 295.625,251.200 294.685,251.200 294.553 C 251.200 293.821,247.139 289.914,244.128 287.748 C 235.642 281.644,228.568 279.587,221.200 281.080 " stroke="none" fill="#050606" fill-rule="evenodd"></path><path id="path2" d="M182.800 47.950 C 182.800 48.142,184.036 50.167,185.546 52.450 C 187.057 54.732,189.351 58.625,190.646 61.100 C 191.940 63.575,193.123 65.600,193.274 65.600 C 194.232 65.600,189.745 55.163,187.635 52.486 C 184.476 48.476,182.800 46.904,182.800 47.950 M208.006 54.220 C 208.009 55.089,208.283 56.610,208.614 57.600 L 209.215 59.400 209.026 56.438 C 208.821 53.236,207.995 51.440,208.006 54.220 M245.600 55.972 C 241.411 57.302,233.863 61.362,232.235 63.161 C 231.080 64.437,232.260 64.243,234.573 62.776 C 235.635 62.103,237.245 61.263,238.151 60.910 C 239.058 60.557,240.250 59.975,240.800 59.618 C 241.678 59.048,243.022 58.445,249.200 55.853 L 250.600 55.265 249.200 55.269 C 248.430 55.271,246.810 55.587,245.600 55.972 M143.530 59.214 C 145.431 60.373,148.179 61.298,147.582 60.578 C 146.969 59.840,143.920 58.400,142.974 58.401 C 142.391 58.403,142.528 58.603,143.530 59.214 M168.000 62.580 C 168.000 62.679,169.845 64.016,172.100 65.552 C 174.355 67.088,177.993 69.700,180.184 71.356 C 184.839 74.874,185.503 74.944,182.177 71.563 C 178.349 67.673,168.000 61.115,168.000 62.580 M255.400 66.451 C 250.705 67.037,240.938 70.175,242.266 70.670 C 242.522 70.766,246.032 70.042,250.066 69.062 C 254.100 68.082,257.987 67.158,258.703 67.008 C 259.420 66.858,259.905 66.570,259.780 66.367 C 259.526 65.956,259.334 65.960,255.400 66.451 M157.200 70.847 C 157.200 71.539,157.036 71.644,156.300 71.421 C 151.925 70.098,151.203 70.760,154.200 73.347 C 157.236 75.968,157.163 76.923,153.997 75.987 C 146.892 73.885,134.303 73.077,130.030 74.449 C 127.622 75.223,127.529 75.880,129.781 76.218 C 132.390 76.609,132.370 77.076,129.714 77.802 C 128.441 78.150,127.130 78.598,126.800 78.798 C 126.470 78.998,123.680 80.425,120.600 81.970 C 113.677 85.441,111.662 86.963,112.607 88.007 C 113.215 88.679,113.077 88.864,110.343 91.046 C 105.305 95.066,105.006 95.600,107.800 95.600 C 112.670 95.600,107.595 98.689,101.242 99.592 C 97.780 100.085,97.407 100.574,99.734 101.572 C 101.898 102.499,102.071 103.149,100.412 104.129 C 97.315 105.959,95.361 108.800,97.200 108.800 C 98.216 108.800,98.231 109.769,97.230 110.770 C 95.034 112.966,95.476 114.014,98.264 113.220 C 101.189 112.387,110.214 110.465,113.400 109.996 C 115.160 109.737,117.682 109.182,119.005 108.762 C 122.084 107.784,126.574 106.766,128.507 106.607 C 130.529 106.440,132.113 105.385,131.803 104.410 C 131.509 103.484,132.256 103.233,135.104 103.302 C 137.717 103.365,138.326 102.870,137.391 101.443 L 136.708 100.400 137.952 100.400 C 139.743 100.400,147.716 103.083,149.478 104.278 C 151.185 105.437,152.911 105.200,153.116 103.779 C 153.225 103.028,148.890 99.629,147.769 99.586 C 147.566 99.578,146.860 99.126,146.200 98.582 L 145.000 97.592 146.400 97.844 C 147.170 97.983,148.355 98.410,149.033 98.795 C 149.710 99.179,150.970 99.724,151.833 100.006 C 152.695 100.287,154.025 100.850,154.789 101.256 C 156.516 102.174,157.615 101.522,156.825 100.047 C 156.027 98.555,157.569 99.259,160.574 101.758 C 161.660 102.661,163.640 104.165,164.974 105.101 L 167.400 106.801 168.115 105.937 L 168.831 105.073 170.115 106.289 C 173.651 109.634,174.823 108.816,172.358 104.722 C 170.170 101.086,170.217 101.200,170.908 101.200 C 171.489 101.200,171.945 101.604,175.200 105.002 C 177.932 107.855,180.800 108.749,180.800 106.749 C 180.800 106.008,180.853 106.011,182.459 106.830 C 183.554 107.389,184.510 107.598,185.270 107.446 C 186.244 107.251,186.536 107.404,187.165 108.438 C 188.609 110.813,191.165 111.510,190.632 109.384 C 190.442 108.627,190.537 108.511,191.204 108.685 C 191.644 108.800,192.287 108.660,192.633 108.373 C 193.300 107.819,193.980 108.383,193.994 109.500 C 194.001 110.121,194.888 110.152,195.486 109.554 C 195.815 109.225,196.169 109.273,196.828 109.734 C 197.652 110.312,197.801 110.300,198.715 109.581 C 199.261 109.151,199.894 108.800,200.122 108.800 C 200.350 108.800,200.829 108.536,201.186 108.212 C 201.895 107.571,204.800 108.138,204.800 108.917 C 204.800 109.605,207.134 108.853,208.846 107.613 C 210.752 106.232,211.858 106.008,211.378 107.100 C 209.906 110.451,211.077 111.451,214.247 109.549 C 214.933 109.137,215.788 108.800,216.147 108.800 C 216.506 108.800,216.800 108.652,216.800 108.471 C 216.800 108.079,219.895 106.000,220.479 106.000 C 220.715 106.000,220.780 106.425,220.634 107.009 C 220.290 108.376,221.074 108.610,223.377 107.829 C 225.822 106.998,226.673 106.989,226.000 107.800 C 225.272 108.677,226.180 109.600,227.769 109.600 C 228.468 109.600,229.236 109.796,229.476 110.036 C 230.032 110.592,234.037 110.334,238.000 109.488 C 245.107 107.970,263.080 107.116,270.400 107.948 C 272.490 108.186,276.630 108.657,279.600 108.995 C 282.570 109.333,286.620 109.895,288.600 110.244 C 290.580 110.593,292.993 110.977,293.962 111.098 L 295.724 111.318 295.490 110.159 C 295.361 109.522,295.123 108.657,294.961 108.237 C 294.686 107.527,294.816 107.492,296.833 107.726 C 300.715 108.178,300.684 107.324,296.735 105.071 C 294.613 103.861,292.400 102.088,292.400 101.600 C 292.400 101.419,293.651 101.271,295.181 101.271 C 299.079 101.271,300.124 100.394,296.904 99.824 C 293.728 99.262,290.101 97.520,286.400 94.778 C 284.310 93.229,281.676 91.430,280.547 90.779 C 276.277 88.317,276.657 88.047,284.600 87.898 L 289.800 87.800 288.492 86.959 C 286.656 85.780,279.971 83.699,275.352 82.870 C 270.852 82.062,270.356 81.545,273.180 80.607 C 274.291 80.238,275.200 79.784,275.200 79.600 C 275.200 79.012,269.999 78.680,265.118 78.956 C 262.197 79.121,260.400 79.077,260.400 78.840 C 260.400 78.406,263.857 77.040,266.699 76.352 C 272.681 74.903,265.516 74.777,257.927 76.197 C 254.997 76.745,251.459 77.555,250.064 77.997 C 246.885 79.004,246.147 79.004,245.884 78.000 C 245.624 77.004,245.064 77.003,240.518 77.996 C 238.513 78.433,235.821 78.764,234.536 78.730 C 230.672 78.629,222.575 82.432,215.985 87.443 C 211.539 90.824,211.741 89.740,216.860 82.751 C 221.783 76.029,215.243 80.463,207.719 88.949 C 204.848 92.188,204.602 92.143,204.247 88.313 C 203.858 84.128,202.466 78.558,201.545 77.504 L 200.755 76.600 200.988 81.400 C 201.263 87.065,200.933 88.072,199.408 86.216 C 198.073 84.590,197.815 85.101,198.402 88.211 C 199.011 91.440,198.598 92.122,197.070 90.407 C 195.895 89.089,195.200 88.863,195.200 89.800 C 195.200 90.640,194.656 90.547,193.762 89.554 C 191.741 87.310,186.617 83.514,183.200 81.730 C 181.110 80.638,178.548 79.140,177.508 78.401 C 175.738 77.144,175.546 77.094,174.556 77.624 C 173.516 78.180,173.443 78.133,170.577 75.095 C 167.224 71.541,167.200 71.529,167.200 73.400 C 167.200 75.265,166.504 75.217,163.916 73.171 C 160.092 70.149,157.200 69.148,157.200 70.847 M122.400 110.651 C 103.362 112.320,72.553 121.912,73.323 125.931 C 74.821 133.748,75.748 135.000,80.034 135.000 C 83.743 135.000,84.106 135.269,84.617 138.400 C 86.629 150.739,90.725 164.642,95.253 174.505 C 100.679 186.325,108.293 194.962,115.946 197.979 C 127.704 202.613,143.394 203.649,155.125 200.565 C 160.583 199.130,160.412 199.293,163.263 192.844 C 165.446 187.906,170.646 184.400,175.786 184.400 C 178.285 184.400,178.905 183.942,180.086 181.225 C 181.007 179.109,185.816 165.547,186.691 162.600 C 189.875 151.876,194.164 144.391,198.369 142.216 C 204.989 138.793,208.966 144.006,216.209 165.600 C 218.135 171.344,220.522 177.925,221.460 180.082 C 222.198 181.777,224.187 183.232,227.420 184.442 C 230.481 185.587,233.355 188.419,237.324 194.200 C 241.128 199.740,241.462 199.966,247.976 201.422 C 267.024 205.680,286.694 201.183,296.900 190.238 C 305.396 181.126,313.405 161.124,317.006 140.027 C 317.751 135.660,318.167 134.672,319.130 134.978 C 323.504 136.366,325.981 135.315,327.094 131.600 C 328.933 125.464,328.383 124.623,320.292 121.199 C 286.507 106.898,251.013 106.710,212.591 120.628 C 201.922 124.493,199.497 124.532,189.200 121.003 C 165.380 112.840,154.955 110.819,135.600 110.614 C 129.330 110.548,123.390 110.564,122.400 110.651 M147.511 111.813 C 160.277 113.142,169.358 115.214,184.271 120.200 C 200.711 125.696,200.595 125.696,216.200 120.267 C 254.054 107.097,295.591 108.574,324.600 124.121 L 327.000 125.407 326.941 127.404 C 326.810 131.898,324.818 135.109,323.066 133.655 C 322.796 133.431,321.861 133.234,320.988 133.218 C 320.114 133.202,318.957 133.146,318.415 133.094 C 317.447 133.002,317.411 133.108,316.354 139.200 C 311.156 169.146,301.726 187.866,287.800 195.880 C 273.177 204.295,244.310 203.731,239.226 194.932 C 238.442 193.574,237.207 191.618,236.482 190.585 C 234.620 187.932,235.007 187.730,238.047 189.770 C 249.726 197.605,273.132 197.935,284.483 190.425 C 303.869 177.599,314.739 140.150,302.522 128.276 C 296.034 121.970,283.149 118.616,265.400 118.614 C 231.288 118.610,216.150 129.254,219.625 150.800 C 221.160 160.314,227.161 177.054,231.162 182.982 C 233.149 185.926,233.317 185.870,228.891 183.741 C 223.958 181.368,224.455 182.170,218.655 167.200 C 217.249 163.570,215.451 158.800,214.661 156.600 C 209.734 142.895,205.925 138.379,200.817 140.191 C 193.782 142.686,191.248 146.733,184.783 165.800 C 182.545 172.400,180.148 178.970,179.457 180.400 L 178.200 183.000 175.200 183.248 C 173.550 183.384,171.619 183.715,170.909 183.984 C 168.843 184.765,168.698 184.341,170.245 182.043 C 173.823 176.730,179.125 161.496,180.818 151.660 C 184.598 129.712,171.373 119.532,137.800 118.546 C 117.969 117.964,101.222 122.842,96.003 130.721 C 87.404 143.703,98.577 178.583,114.881 189.655 C 125.344 196.761,146.504 197.875,158.985 191.977 C 162.046 190.532,162.257 190.588,161.595 192.673 C 160.064 197.503,159.586 197.806,151.400 199.146 C 123.855 203.655,105.567 194.258,95.912 170.634 C 90.845 158.237,88.472 150.046,86.977 139.800 C 86.656 137.600,86.281 135.037,86.143 134.104 C 86.005 133.172,85.639 132.198,85.329 131.941 C 84.858 131.550,84.969 131.264,86.008 130.192 C 90.499 125.559,83.427 122.544,77.534 126.579 C 76.079 127.575,76.060 127.577,75.134 126.817 C 73.333 125.338,75.013 124.203,84.706 120.350 C 103.931 112.706,126.555 109.631,147.511 111.813 M147.000 120.191 C 176.294 123.200,185.327 134.860,177.751 159.886 C 171.872 179.304,168.526 185.021,160.186 189.891 C 149.541 196.108,128.127 196.148,117.549 189.970 C 102.509 181.187,90.874 152.409,95.405 135.200 C 98.408 123.795,120.244 117.443,147.000 120.191 M277.685 120.393 C 302.967 123.674,310.084 132.578,305.024 154.600 C 299.802 177.329,287.851 191.313,271.469 193.864 C 250.826 197.078,235.152 190.781,228.844 176.739 C 220.948 159.159,218.533 142.826,222.634 134.733 C 228.465 123.226,252.088 117.072,277.685 120.393 M316.400 124.710 C 314.758 124.886,313.200 126.186,313.200 127.381 C 313.200 130.850,320.891 133.945,323.365 131.471 C 326.551 128.285,322.227 124.086,316.400 124.710 M119.800 125.579 C 106.007 128.040,99.068 136.470,100.192 149.400 C 100.571 153.751,100.081 152.985,99.389 148.143 C 98.697 143.302,98.685 139.559,99.349 135.507 C 100.115 130.833,99.057 130.264,96.708 134.087 C 94.869 137.080,94.436 145.731,95.820 151.851 C 98.224 162.485,102.807 173.349,106.713 177.672 C 109.311 180.549,109.470 179.458,107.173 174.507 C 104.294 168.302,102.468 163.018,101.053 156.802 C 100.521 154.462,100.476 153.028,100.980 154.443 C 104.026 163.000,107.813 171.872,108.987 173.200 C 109.473 173.750,110.702 175.472,111.718 177.027 C 114.024 180.557,118.796 185.379,121.716 187.128 C 133.575 194.235,158.011 190.815,165.740 180.968 C 169.558 176.104,170.378 173.988,175.232 156.461 L 177.265 149.123 176.827 145.061 C 176.035 137.733,172.265 133.203,163.600 129.171 C 155.560 125.430,131.634 123.468,119.800 125.579 M256.400 125.226 C 240.808 126.680,229.113 131.650,225.451 138.377 C 222.639 143.543,222.712 148.075,225.780 158.800 C 226.944 162.870,228.294 167.628,228.780 169.374 C 232.971 184.431,244.915 191.378,265.474 190.714 C 271.683 190.513,274.434 189.800,278.498 187.337 C 288.225 181.443,298.591 163.480,300.055 149.983 C 302.134 130.818,287.208 122.354,256.400 125.226 M144.000 126.004 C 152.657 126.750,162.683 129.124,164.184 130.782 C 165.671 132.426,164.269 133.210,161.246 132.424 C 160.451 132.217,158.720 131.773,157.400 131.438 C 153.000 130.319,144.400 130.107,144.400 131.117 C 144.400 131.576,144.600 132.076,144.845 132.228 C 145.089 132.379,145.725 133.514,146.258 134.751 C 148.239 139.348,148.369 139.477,149.097 137.550 C 149.477 136.541,149.456 136.082,148.985 135.172 C 147.874 133.022,151.888 132.080,157.480 133.177 C 158.536 133.384,160.404 133.647,161.630 133.762 C 163.632 133.950,165.557 134.695,170.278 137.106 C 176.375 140.220,177.370 151.928,172.031 157.721 C 170.320 159.577,170.128 160.301,170.823 162.294 C 171.148 163.225,171.091 164.100,170.579 166.054 C 170.212 167.454,169.768 169.735,169.592 171.122 C 168.548 179.351,160.734 186.229,149.978 188.385 C 131.622 192.065,119.496 188.026,111.809 175.671 C 111.144 174.602,110.196 173.114,109.702 172.364 C 108.642 170.755,108.716 170.243,110.031 170.080 C 112.031 169.833,112.203 169.595,110.935 168.824 C 109.183 167.758,108.540 164.219,109.836 162.769 C 110.859 161.623,110.485 160.889,108.494 160.128 C 104.983 158.788,104.467 158.131,102.643 152.692 C 100.810 147.229,101.080 144.348,103.812 140.199 C 107.524 134.563,109.951 133.428,115.805 134.590 C 119.767 135.376,122.913 135.483,128.635 135.027 L 132.670 134.706 134.183 136.553 C 136.669 139.587,136.990 138.724,135.103 134.088 C 134.058 131.523,133.184 131.184,130.778 132.411 C 125.724 134.989,123.935 134.988,118.249 132.404 C 116.344 131.538,112.466 131.632,109.928 132.606 C 108.810 133.035,108.183 131.705,109.045 130.735 C 112.580 126.754,128.195 124.641,144.000 126.004 M278.871 126.588 C 286.469 127.734,291.883 130.233,291.332 132.340 C 291.068 133.350,290.390 133.422,288.820 132.611 C 287.513 131.934,280.751 130.390,280.300 130.664 C 279.718 131.019,280.020 132.222,281.212 134.300 C 282.442 136.446,283.049 136.995,282.696 135.644 C 282.289 134.088,282.972 133.804,287.330 133.715 C 293.324 133.592,296.238 135.517,296.698 139.906 C 296.833 141.191,297.225 142.151,297.916 142.892 C 299.822 144.935,299.027 152.101,296.235 158.059 C 295.271 160.117,293.817 163.870,293.005 166.400 C 289.484 177.369,281.802 186.024,273.200 188.712 C 266.166 190.911,247.434 188.749,241.038 185.001 C 235.611 181.821,229.638 173.163,230.723 170.050 C 230.948 169.404,230.982 168.195,230.802 167.212 C 230.560 165.886,230.663 165.106,231.263 163.750 C 232.105 161.848,232.331 161.773,236.800 161.924 C 237.790 161.958,241.868 162.057,245.862 162.146 C 249.856 162.234,253.305 162.418,253.526 162.554 C 254.174 162.955,255.200 162.374,255.200 161.606 C 255.200 160.353,254.311 160.039,251.388 160.259 C 249.855 160.375,248.420 160.466,248.200 160.461 C 236.615 160.206,232.533 159.919,231.034 159.256 C 226.361 157.189,222.743 148.629,225.352 145.814 C 226.303 144.787,227.192 142.595,227.198 141.262 C 227.202 140.197,228.590 138.401,229.882 137.788 C 231.150 137.186,231.379 136.823,231.222 135.668 C 230.385 129.506,260.350 123.796,278.871 126.588 M85.120 126.880 C 86.391 128.151,83.907 129.850,80.434 130.084 C 78.527 130.212,77.361 129.279,78.281 128.359 C 79.567 127.073,84.291 126.051,85.120 126.880 M320.800 127.518 C 322.284 128.241,322.836 129.471,321.939 130.056 C 320.736 130.842,315.200 129.048,315.200 127.872 C 315.200 126.247,317.848 126.080,320.800 127.518 M258.100 130.259 C 257.356 130.568,257.480 131.080,258.745 132.928 C 259.375 133.848,260.008 134.960,260.152 135.400 C 261.320 138.976,264.800 137.864,264.800 133.915 C 264.800 131.228,268.171 132.215,269.869 135.400 C 271.891 139.191,272.540 139.030,271.043 135.108 C 270.516 133.729,269.927 132.060,269.734 131.400 L 269.382 130.200 263.991 130.126 C 261.026 130.085,258.375 130.145,258.100 130.259 M236.800 134.243 C 236.030 134.589,234.956 135.045,234.414 135.258 C 233.657 135.556,233.555 135.725,233.977 135.986 C 234.291 136.180,234.918 136.147,235.441 135.908 C 236.708 135.331,239.525 136.694,241.155 138.672 C 242.775 140.637,242.727 139.665,241.043 136.400 C 239.565 133.534,239.011 133.252,236.800 134.243 M262.000 133.933 C 262.000 134.454,261.524 134.801,261.138 134.561 C 260.724 134.306,261.081 133.600,261.624 133.600 C 261.831 133.600,262.000 133.750,262.000 133.933 M98.120 139.700 C 97.804 147.559,99.631 158.170,102.841 167.115 C 104.493 171.719,103.483 170.821,101.230 165.683 C 96.623 155.173,94.600 140.914,97.000 135.857 C 98.141 133.451,98.343 134.144,98.120 139.700 M80.963 140.039 C 80.097 141.392,77.200 147.441,77.200 147.897 C 77.200 150.038,81.694 144.866,82.234 142.105 C 82.501 140.738,81.528 139.157,80.963 140.039 M303.612 142.800 C 303.590 142.910,303.316 144.980,303.003 147.400 C 302.690 149.820,302.264 152.520,302.058 153.400 C 301.127 157.368,301.073 157.820,301.594 157.333 C 302.770 156.234,304.696 145.198,304.009 143.490 C 303.812 143.001,303.633 142.690,303.612 142.800 M197.211 147.852 C 195.898 148.957,194.663 151.140,192.714 155.800 C 191.415 158.907,191.240 159.406,188.649 167.400 C 185.905 175.865,184.949 178.526,184.034 180.232 C 182.195 183.663,184.789 185.249,195.373 187.169 C 201.074 188.204,209.792 186.230,211.208 183.586 C 212.285 181.573,207.434 182.232,202.448 184.775 C 200.335 185.853,199.284 185.676,195.233 183.554 C 193.602 182.699,191.767 182.000,191.157 182.000 C 190.547 182.000,189.948 181.839,189.826 181.642 C 189.456 181.043,190.675 180.820,192.077 181.230 C 200.882 183.805,211.000 182.294,211.000 178.404 C 211.000 176.315,209.515 175.702,206.459 176.529 C 203.230 177.403,200.136 177.743,199.835 177.257 C 199.686 177.015,200.355 176.749,201.492 176.599 C 207.397 175.818,209.778 174.826,210.248 172.950 C 210.796 170.766,208.307 169.993,203.747 170.931 C 199.833 171.736,198.906 171.746,197.600 171.000 C 196.610 170.434,196.616 170.428,198.236 170.414 C 199.136 170.406,200.756 170.122,201.836 169.781 C 202.916 169.441,204.863 169.001,206.163 168.803 C 209.547 168.287,209.992 166.592,208.401 160.277 C 206.058 150.980,200.641 144.966,197.211 147.852 M78.716 151.901 C 75.931 155.116,74.525 158.656,76.200 158.236 C 77.719 157.854,77.496 159.126,75.600 161.649 C 73.786 164.064,73.685 164.400,74.776 164.400 C 75.905 164.400,76.069 164.937,75.417 166.497 C 74.904 167.725,74.911 167.981,75.483 168.797 C 76.077 169.645,76.071 169.878,75.407 171.832 C 74.956 173.159,74.767 174.538,74.900 175.532 C 75.017 176.403,74.950 177.987,74.751 179.052 C 74.436 180.736,74.499 181.137,75.233 182.130 C 75.977 183.136,76.026 183.473,75.649 184.969 C 75.414 185.903,75.328 187.565,75.458 188.662 C 75.628 190.096,75.512 191.009,75.047 191.909 C 74.201 193.545,74.230 193.892,75.239 194.212 C 76.166 194.507,76.139 194.926,74.997 198.000 C 74.247 200.016,74.663 205.390,75.795 208.322 C 76.108 209.135,76.659 210.970,77.019 212.399 C 77.752 215.311,77.943 215.529,79.563 215.291 C 80.672 215.128,81.600 213.905,81.600 212.607 C 81.600 211.783,82.390 209.857,82.630 210.097 C 82.744 210.211,82.903 212.081,82.983 214.252 C 83.094 217.284,83.368 218.829,84.164 220.909 C 84.734 222.399,85.203 224.109,85.206 224.709 C 85.215 226.273,85.823 227.137,86.463 226.497 C 87.347 225.613,87.958 225.966,88.204 227.500 C 88.583 229.867,89.491 231.600,90.350 231.600 C 90.866 231.600,91.319 232.114,91.747 233.185 C 92.322 234.620,93.988 236.000,95.148 236.000 C 95.361 236.000,95.912 234.866,96.373 233.481 C 98.150 228.142,99.468 227.721,99.441 232.500 C 99.409 238.089,100.871 242.738,102.144 241.100 C 102.704 240.380,103.600 240.148,103.600 240.724 C 103.600 242.778,104.769 242.379,105.941 239.923 C 107.842 235.940,108.541 235.590,108.128 238.828 C 107.594 243.017,107.812 246.460,108.747 248.573 C 109.985 251.372,110.557 250.806,110.832 246.509 C 111.073 242.731,112.339 239.303,114.072 237.735 C 115.339 236.588,115.604 237.494,115.185 241.543 C 114.660 246.618,115.046 247.192,116.953 244.173 C 118.374 241.925,118.851 242.295,118.307 245.223 C 117.776 248.084,118.262 256.000,118.969 256.000 C 120.453 256.000,121.962 253.104,123.423 247.450 C 124.984 241.407,126.382 239.860,130.500 239.618 C 131.120 239.581,130.747 242.299,129.761 245.000 C 128.183 249.321,128.200 249.200,129.164 249.200 C 131.167 249.200,135.063 243.726,137.500 237.487 C 139.390 232.648,144.821 227.744,143.608 231.971 C 143.372 232.796,143.448 233.376,143.874 233.984 C 144.378 234.704,144.388 234.952,143.936 235.560 C 143.641 235.958,142.815 237.056,142.100 238.001 C 140.754 239.781,140.505 240.745,141.211 241.451 C 141.492 241.732,140.671 243.281,138.611 246.358 C 135.541 250.942,134.896 252.800,136.376 252.800 C 137.644 252.800,137.688 253.452,136.570 255.660 C 135.284 258.197,132.400 266.945,132.400 268.307 C 132.400 269.213,132.509 269.269,133.800 269.026 C 135.507 268.706,135.525 268.325,133.600 273.449 C 130.925 280.570,131.886 282.800,137.632 282.800 C 139.692 282.800,139.801 282.756,148.600 278.337 C 153.278 275.988,161.590 271.936,167.200 269.270 C 174.771 265.672,193.086 260.295,205.000 258.171 C 217.663 255.914,240.779 260.919,252.236 268.398 C 256.095 270.917,255.745 270.972,259.320 267.300 C 264.311 262.174,264.367 262.073,263.508 259.696 C 263.077 258.506,263.103 258.286,263.708 257.948 C 264.960 257.247,263.677 255.120,257.211 247.168 C 255.805 245.439,255.928 245.303,258.097 246.196 C 259.555 246.797,259.288 245.222,257.442 242.338 C 255.499 239.301,255.393 238.847,256.803 239.602 C 257.282 239.858,258.125 239.955,258.676 239.817 C 260.063 239.469,260.549 239.986,262.857 244.268 C 265.022 248.284,265.069 248.333,265.795 247.339 C 266.755 246.026,267.989 248.918,268.006 252.520 C 268.017 254.783,268.624 255.144,269.609 253.474 C 270.088 252.663,270.740 252.000,271.060 252.000 C 271.753 252.000,272.798 249.676,272.806 248.113 C 272.817 246.107,273.484 245.637,274.524 246.900 C 275.920 248.595,276.662 248.333,277.169 245.969 C 277.759 243.221,278.259 242.400,279.346 242.400 C 279.917 242.400,280.468 242.021,280.800 241.400 C 281.094 240.850,281.571 240.400,281.860 240.400 C 282.149 240.400,282.498 240.850,282.636 241.400 C 282.968 242.723,284.099 242.690,285.370 241.319 C 285.921 240.725,286.475 240.342,286.602 240.468 C 286.728 240.595,281.265 246.346,274.462 253.249 C 256.643 271.329,253.951 274.667,255.503 276.756 C 257.298 279.171,258.113 278.707,264.700 271.522 C 272.359 263.169,277.791 256.879,283.800 249.404 C 286.440 246.120,289.356 242.607,290.279 241.598 C 292.232 239.463,292.928 237.895,292.596 236.382 C 292.348 235.251,295.368 232.000,296.667 232.000 C 297.389 232.000,296.369 234.108,294.873 235.707 C 293.964 236.678,293.806 237.270,293.589 240.507 C 293.225 245.924,293.915 246.007,297.264 240.949 C 298.518 239.055,299.187 238.400,299.865 238.400 C 300.844 238.400,301.403 236.971,302.402 231.907 C 302.888 229.439,303.322 228.871,304.178 229.582 C 304.612 229.942,304.861 229.667,305.416 228.213 C 306.163 226.259,306.877 226.260,307.368 228.216 C 307.775 229.837,308.316 229.339,308.797 226.900 C 309.874 221.447,311.121 218.705,312.141 219.551 C 312.527 219.871,313.000 219.318,314.127 217.232 C 315.706 214.309,316.763 213.073,316.847 214.051 C 316.916 214.852,316.921 214.786,316.629 217.500 C 316.095 222.470,318.425 219.863,320.829 212.800 C 322.402 208.181,322.561 207.978,323.376 209.554 C 324.405 211.544,324.537 211.071,324.253 206.400 C 323.973 201.796,324.053 201.572,325.669 202.437 C 327.177 203.244,327.233 202.235,325.828 199.582 C 323.587 195.352,322.856 193.068,322.440 189.002 C 321.955 184.261,322.062 183.900,323.846 184.235 C 326.243 184.685,324.805 178.790,321.178 173.297 L 320.317 171.994 321.759 171.391 C 323.573 170.633,323.562 170.338,321.669 168.935 C 318.003 166.219,316.792 164.000,318.976 164.000 C 321.159 164.000,321.002 163.370,318.359 161.522 C 317.005 160.575,315.645 159.620,315.337 159.400 C 313.909 158.380,312.487 163.327,313.405 166.121 C 313.780 167.264,314.117 169.114,314.153 170.231 C 314.189 171.349,314.504 172.700,314.854 173.234 C 315.248 173.834,315.417 174.701,315.299 175.508 C 315.194 176.225,315.327 177.340,315.594 177.986 C 316.109 179.230,315.341 182.198,314.132 183.631 C 313.823 183.999,313.600 185.236,313.600 186.586 C 313.600 188.549,313.445 189.051,312.600 189.835 C 311.809 190.568,311.600 191.151,311.600 192.628 C 311.600 194.285,311.512 194.470,310.815 194.288 C 309.715 194.000,309.366 194.605,308.836 197.709 C 308.582 199.199,308.175 200.909,307.932 201.509 C 307.689 202.109,307.376 203.230,307.236 204.000 C 307.015 205.223,306.835 205.400,305.813 205.400 C 304.772 205.400,304.605 205.575,304.311 206.980 C 304.128 207.849,303.708 208.860,303.376 209.227 C 302.880 209.775,302.849 210.232,303.200 211.800 C 303.897 214.908,302.787 214.698,301.605 211.498 C 300.621 208.836,298.400 209.079,298.400 211.849 C 298.400 213.082,298.295 213.200,297.208 213.200 C 295.820 213.200,295.345 214.313,295.768 216.571 C 296.141 218.557,295.371 218.730,293.647 217.046 C 291.696 215.141,290.000 215.026,290.000 216.800 C 290.000 217.799,289.840 218.000,289.043 218.000 C 287.835 218.000,287.500 218.863,287.838 221.111 C 288.095 222.827,288.076 222.869,287.252 222.428 C 286.783 222.177,286.400 221.789,286.400 221.566 C 286.400 220.966,283.247 219.663,282.356 219.896 C 281.843 220.030,281.437 220.691,281.138 221.880 C 280.790 223.262,280.534 223.624,280.001 223.484 C 279.623 223.386,279.017 223.471,278.655 223.673 C 278.205 223.925,277.714 223.845,277.109 223.421 C 274.974 221.926,273.188 223.096,273.928 225.506 C 274.497 227.360,273.922 228.063,272.994 226.647 C 272.471 225.849,272.027 225.631,271.074 225.704 C 270.035 225.785,269.675 225.557,268.850 224.300 C 266.661 220.963,264.677 222.972,264.705 228.500 C 264.720 231.485,264.545 231.431,261.125 227.393 C 257.844 223.520,257.419 223.412,257.353 226.435 C 257.307 228.515,257.264 228.597,256.253 228.525 C 255.383 228.462,255.200 228.619,255.200 229.425 C 255.200 230.802,254.692 230.645,252.934 228.724 C 252.090 227.802,250.919 226.542,250.331 225.925 L 249.263 224.801 247.425 225.589 C 246.292 226.075,245.150 226.290,244.449 226.150 C 243.467 225.953,243.124 226.157,241.955 227.627 C 239.238 231.044,238.207 231.894,235.893 232.623 C 233.133 233.493,232.507 233.093,234.385 231.658 C 238.527 228.492,242.663 222.707,243.612 218.750 C 245.177 212.225,235.907 191.993,229.367 187.661 C 224.859 184.676,217.279 185.002,208.900 188.543 C 207.525 189.125,205.275 190.077,203.900 190.659 C 201.026 191.877,201.630 191.947,191.200 189.189 C 178.444 185.816,169.533 187.343,167.793 193.200 C 167.283 194.915,164.533 200.839,162.500 204.600 C 156.495 215.710,155.919 222.122,160.186 230.372 C 161.279 232.487,161.054 232.887,158.943 232.571 L 157.086 232.292 157.355 233.364 C 157.720 234.818,157.371 235.261,156.260 234.755 C 155.327 234.329,154.807 233.479,153.075 229.540 C 152.485 228.200,151.756 227.177,151.284 227.027 C 150.845 226.887,150.399 226.439,150.292 226.031 C 150.092 225.265,147.992 224.780,144.700 224.739 C 143.264 224.721,143.200 224.662,143.200 223.360 C 143.200 220.467,140.038 221.319,136.382 225.198 C 134.722 226.959,133.055 228.400,132.678 228.400 C 132.300 228.400,131.176 228.783,130.180 229.251 C 127.975 230.288,127.669 230.065,128.566 228.076 C 130.354 224.110,128.636 221.743,125.839 224.321 C 123.680 226.312,123.200 226.401,123.200 224.814 C 123.200 222.565,118.740 221.893,116.473 223.800 C 115.599 224.536,114.818 224.800,113.521 224.800 L 111.758 224.800 112.156 222.397 C 112.725 218.954,110.632 218.305,107.246 220.876 C 104.597 222.887,101.303 221.344,103.019 218.894 C 104.209 217.195,102.496 212.800,100.644 212.800 C 100.201 212.800,99.233 213.385,98.493 214.100 C 97.277 215.276,97.111 215.333,96.754 214.700 C 96.538 214.315,96.021 214.000,95.607 214.000 C 94.658 214.000,94.448 213.253,94.487 210.000 C 94.538 205.629,93.027 202.194,92.200 204.800 C 92.060 205.240,91.705 205.600,91.411 205.600 C 90.752 205.600,90.907 203.444,91.821 199.918 C 92.536 197.160,92.358 195.820,91.195 195.197 C 90.758 194.963,90.400 194.414,90.400 193.977 C 90.400 193.523,89.982 192.992,89.422 192.737 C 88.044 192.109,87.607 190.723,86.938 184.851 C 86.730 183.029,86.518 182.602,85.549 182.051 C 84.512 181.461,84.404 181.195,84.390 179.200 C 84.319 168.810,83.237 161.600,81.750 161.600 C 80.894 161.600,80.760 160.913,81.242 158.998 C 82.072 155.701,80.136 150.263,78.716 151.901 M132.200 160.400 C 132.064 160.620,131.603 160.800,131.176 160.800 C 129.853 160.800,130.318 161.557,132.180 162.432 C 133.158 162.893,134.170 163.523,134.429 163.834 C 135.672 165.333,135.836 163.880,134.738 161.100 C 134.295 159.980,132.727 159.548,132.200 160.400 M157.200 160.720 C 157.200 161.550,157.935 162.400,158.653 162.400 C 159.397 162.400,159.789 160.765,159.143 160.356 C 158.211 159.766,157.200 159.955,157.200 160.720 M112.700 160.677 C 111.851 160.897,111.785 162.128,112.580 162.922 C 113.573 163.915,125.365 164.287,126.845 163.372 C 127.861 162.744,126.514 162.367,124.157 162.619 C 122.684 162.777,121.383 162.732,121.097 162.513 C 119.901 161.596,114.070 160.321,112.700 160.677 M141.290 160.871 C 141.573 161.719,142.732 162.228,143.234 161.726 C 143.485 161.475,143.569 161.074,143.422 160.835 C 143.053 160.238,141.091 160.272,141.290 160.871 M145.080 160.653 C 144.534 161.200,144.811 161.654,145.616 161.528 C 146.065 161.458,146.434 161.220,146.437 161.000 C 146.443 160.513,145.469 160.264,145.080 160.653 M221.903 199.739 C 225.953 200.789,229.905 204.896,233.150 211.428 C 236.520 218.208,236.540 223.332,233.187 220.854 C 231.269 219.436,230.592 219.721,226.859 223.515 C 222.742 227.698,220.254 229.484,217.248 230.414 C 214.824 231.164,214.564 231.447,214.199 233.726 C 213.883 235.698,213.154 235.463,212.476 233.171 C 211.173 228.763,209.660 225.520,207.267 222.000 C 202.145 214.466,201.285 211.043,203.509 207.034 C 204.109 205.952,204.870 204.929,205.200 204.759 C 205.530 204.590,206.340 204.198,207.000 203.890 C 207.660 203.581,209.453 202.632,210.985 201.781 C 215.481 199.282,218.190 198.776,221.903 199.739 M185.216 200.642 C 190.522 202.217,195.779 208.175,196.645 213.594 C 197.136 216.663,193.787 224.496,191.372 225.927 C 190.521 226.431,186.727 230.979,185.303 233.200 C 183.126 236.597,182.651 236.675,182.209 233.705 C 181.836 231.202,181.747 231.116,177.040 228.700 C 172.380 226.309,170.104 224.379,168.371 221.349 C 167.052 219.045,166.085 218.646,164.576 219.787 C 161.229 222.319,163.117 216.137,167.447 210.390 C 174.193 201.434,179.001 198.796,185.216 200.642 M288.387 241.900 C 288.365 242.399,279.510 253.312,274.024 259.600 C 270.317 263.850,260.281 274.820,259.077 275.938 C 257.724 277.195,256.400 276.820,256.400 275.180 C 256.400 273.445,261.711 267.448,275.603 253.500 C 286.170 242.890,288.433 240.836,288.387 241.900 M213.600 262.824 C 208.055 263.274,201.713 264.321,200.391 265.005 C 199.758 265.332,198.604 265.600,197.826 265.600 C 195.571 265.600,186.257 268.472,178.000 271.714 C 165.584 276.589,140.846 288.514,139.839 290.110 C 139.207 291.112,140.183 295.231,141.263 296.120 C 142.351 297.015,145.047 296.927,144.914 296.000 C 144.866 295.670,145.357 295.130,146.004 294.800 C 149.640 292.946,153.748 290.689,155.433 289.620 C 156.491 288.949,157.502 288.400,157.680 288.400 C 157.858 288.400,159.757 287.557,161.902 286.527 C 164.567 285.246,166.405 284.623,167.714 284.555 C 169.059 284.485,169.831 284.214,170.314 283.643 C 171.443 282.306,176.853 280.753,181.180 280.523 C 185.381 280.300,189.365 279.344,192.908 277.710 C 195.030 276.731,195.334 276.688,196.677 277.173 C 198.091 277.685,198.170 277.663,199.169 276.483 C 200.174 275.294,204.071 273.477,207.184 272.745 C 207.979 272.558,212.533 272.611,217.569 272.866 L 226.538 273.320 235.769 277.817 C 240.846 280.290,245.990 282.923,247.200 283.668 C 251.025 286.022,254.113 288.162,255.377 289.333 C 260.644 294.214,265.476 296.595,266.821 294.974 C 267.514 294.140,268.033 290.139,267.598 288.994 C 267.211 287.978,261.131 282.796,256.576 279.600 C 245.844 272.071,240.260 269.033,237.875 269.427 C 236.785 269.607,236.157 269.504,235.673 269.066 C 235.301 268.729,233.557 267.838,231.798 267.085 C 230.039 266.332,227.657 265.237,226.504 264.653 C 224.502 263.638,219.497 262.335,218.074 262.458 C 217.703 262.490,215.690 262.655,213.600 262.824 M159.593 265.987 C 160.062 266.284,159.876 266.493,158.706 266.981 C 156.751 267.798,156.668 267.773,157.437 266.600 C 158.137 265.532,158.645 265.388,159.593 265.987 M148.000 272.857 C 148.000 273.212,146.322 274.000,145.565 274.000 C 145.354 274.000,145.464 273.569,145.809 273.042 C 146.416 272.116,148.000 271.981,148.000 272.857 M264.500 274.374 C 262.311 276.916,262.345 277.242,265.157 280.683 C 266.453 282.268,267.913 284.212,268.402 285.003 C 270.549 288.478,271.202 284.989,269.563 278.800 C 267.680 271.692,267.184 271.258,264.500 274.374 M211.047 278.439 C 205.318 279.043,201.061 280.004,196.200 281.791 C 188.969 284.448,184.345 286.129,178.600 288.190 C 175.740 289.215,171.600 290.923,169.400 291.985 C 164.708 294.250,164.684 294.258,160.820 294.801 C 157.872 295.215,152.294 297.309,149.712 298.971 C 148.864 299.517,148.079 300.594,147.412 302.126 C 146.194 304.926,146.174 305.200,147.186 305.200 C 148.140 305.200,148.800 306.327,148.800 307.954 C 148.800 309.980,149.847 313.329,151.416 316.324 C 152.664 318.707,152.948 319.713,153.154 322.486 C 153.378 325.508,153.478 325.811,154.281 325.925 C 154.766 325.994,155.269 326.386,155.399 326.796 C 155.529 327.206,156.257 327.909,157.018 328.357 C 157.778 328.806,158.400 329.324,158.400 329.510 C 158.400 329.695,159.174 330.391,160.119 331.058 C 161.065 331.724,162.408 333.154,163.104 334.235 C 163.800 335.316,164.621 336.470,164.928 336.800 C 165.234 337.130,166.096 338.523,166.843 339.895 C 168.267 342.514,168.682 342.854,169.045 341.700 C 169.988 338.700,170.856 338.796,174.469 342.298 C 176.667 344.428,177.600 344.392,177.600 342.179 C 177.600 339.986,178.423 340.643,179.800 343.935 C 182.850 351.227,184.780 351.394,185.182 344.400 C 185.435 339.989,185.773 339.748,187.284 342.900 C 188.085 344.572,188.606 345.200,189.191 345.200 C 190.020 345.200,190.903 346.288,193.759 350.828 C 197.582 356.904,201.200 359.780,201.200 356.743 C 201.200 354.813,202.003 355.552,203.827 359.161 C 206.443 364.337,208.267 365.284,207.239 360.932 C 206.331 357.088,206.493 353.672,207.735 350.500 C 208.942 347.417,209.770 346.844,210.199 348.795 C 210.584 350.546,211.153 350.661,212.469 349.254 C 213.113 348.564,213.891 348.000,214.198 348.000 C 214.504 348.000,215.020 347.620,215.345 347.157 C 216.239 345.881,216.800 346.600,216.800 349.024 C 216.800 352.067,218.091 351.395,220.182 347.263 C 221.177 345.297,221.316 345.932,220.590 349.124 C 219.993 351.747,219.996 352.021,220.620 352.974 C 221.671 354.579,222.381 354.176,226.075 349.876 C 227.434 348.294,229.050 346.785,229.667 346.522 C 230.773 346.050,233.310 342.482,235.719 338.010 C 236.648 336.285,236.936 336.015,237.419 336.415 C 238.264 337.117,239.011 336.356,240.631 333.139 C 241.381 331.650,242.375 330.227,242.840 329.978 C 243.306 329.729,244.302 328.192,245.055 326.563 C 246.545 323.338,246.597 323.292,247.660 324.254 C 248.503 325.018,248.600 324.849,248.988 321.946 C 249.132 320.867,249.562 319.796,250.018 319.384 C 250.448 318.995,250.800 318.461,250.800 318.198 C 250.800 317.934,251.229 316.912,251.754 315.925 C 252.278 314.939,252.834 313.382,252.989 312.466 C 253.297 310.640,253.741 310.368,254.400 311.600 C 255.057 312.828,255.556 312.569,256.422 310.548 C 256.859 309.530,257.648 308.184,258.175 307.556 C 259.236 306.296,259.899 302.255,259.431 299.907 C 259.125 298.374,253.358 292.089,250.200 289.848 C 235.478 279.399,226.567 276.802,211.047 278.439 M232.051 281.564 C 238.763 283.648,245.748 288.137,250.300 293.293 C 250.795 293.854,251.200 294.421,251.200 294.553 C 251.200 294.685,251.835 295.625,252.611 296.642 C 254.102 298.595,254.007 299.600,252.333 299.600 C 251.524 299.600,249.854 301.041,249.525 302.023 C 249.356 302.525,249.189 302.525,248.239 302.018 C 246.697 301.196,245.832 301.845,245.677 303.941 C 245.573 305.344,245.419 305.600,244.677 305.600 C 243.561 305.601,241.736 308.719,241.382 311.231 C 240.994 313.990,240.935 314.091,240.048 313.537 C 238.843 312.785,237.202 314.034,237.194 315.709 C 237.187 317.160,236.942 317.611,235.827 318.227 C 235.401 318.461,234.846 319.270,234.592 320.023 C 234.137 321.375,234.125 321.381,233.645 320.484 C 233.303 319.845,232.860 319.609,232.150 319.688 C 231.299 319.782,231.056 319.556,230.598 318.241 C 229.009 313.686,226.019 314.612,226.626 319.472 C 227.097 323.237,226.063 325.946,225.396 322.695 C 224.210 316.913,221.299 316.401,219.968 321.742 L 219.484 323.684 217.942 323.437 L 216.400 323.191 216.400 325.572 C 216.400 328.240,216.043 328.752,214.991 327.591 C 213.572 326.023,212.408 327.601,212.402 331.100 C 212.401 331.815,212.278 332.400,212.129 332.400 C 211.980 332.400,211.352 331.815,210.733 331.100 L 209.608 329.800 208.830 330.712 C 208.277 331.361,207.974 332.527,207.779 334.765 C 207.410 338.996,206.027 340.509,206.006 336.704 C 205.989 333.716,203.694 327.600,202.590 327.600 C 201.898 327.600,200.002 329.887,199.993 330.731 C 199.990 331.099,199.663 332.736,199.267 334.368 L 198.547 337.336 197.224 333.668 C 195.466 328.792,193.614 328.543,193.587 333.180 C 193.573 335.651,193.523 335.627,191.487 332.198 C 190.565 330.647,190.273 330.407,189.792 330.807 C 188.831 331.604,188.072 330.951,187.793 329.089 C 187.489 327.065,187.292 326.691,186.219 326.105 C 185.789 325.870,185.249 325.004,185.018 324.182 C 184.215 321.319,181.132 321.189,180.871 324.007 C 180.698 325.891,180.146 326.358,179.575 325.105 C 179.320 324.546,178.682 323.892,178.156 323.653 C 177.630 323.413,177.199 322.898,177.199 322.509 C 177.194 320.150,174.685 318.175,173.552 319.638 C 172.758 320.661,172.020 320.237,172.006 318.749 C 172.003 318.391,171.718 317.864,171.374 317.578 C 171.029 317.292,170.484 316.550,170.163 315.929 C 169.304 314.267,166.963 314.242,167.409 315.900 C 167.572 316.505,167.830 317.633,167.982 318.406 C 168.134 319.179,168.584 320.310,168.983 320.918 C 169.841 322.228,169.553 322.715,168.299 322.076 C 165.683 320.740,165.207 320.732,163.940 321.999 C 162.754 323.184,162.000 323.520,162.000 322.863 C 162.000 322.678,160.405 320.885,158.455 318.878 C 154.736 315.052,154.400 314.482,153.576 310.600 C 153.296 309.280,152.827 307.714,152.533 307.120 C 149.452 300.879,156.366 295.634,168.000 295.387 C 174.589 295.246,181.891 293.030,186.494 289.774 C 194.364 284.206,201.571 281.848,211.000 281.758 C 215.593 281.714,219.286 281.468,221.200 281.080 C 225.719 280.164,227.848 280.259,232.051 281.564 " stroke="none" fill="#495a63" fill-rule="evenodd"></path><path id="path3" d="M259.900 126.293 C 260.835 126.377,262.365 126.377,263.300 126.293 C 264.235 126.209,263.470 126.140,261.600 126.140 C 259.730 126.140,258.965 126.209,259.900 126.293 M281.101 127.352 C 286.465 128.696,290.884 130.993,286.700 130.262 C 278.520 128.834,278.368 128.978,280.020 136.567 C 281.418 142.992,281.385 143.600,279.635 143.600 C 277.962 143.600,276.401 141.609,273.000 135.141 C 269.562 128.603,269.722 128.706,263.395 128.913 C 256.374 129.142,255.926 129.583,257.762 134.459 C 258.290 135.865,258.953 138.180,259.233 139.605 C 259.513 141.030,260.089 142.783,260.513 143.501 C 261.831 145.735,261.431 145.959,256.120 145.965 C 249.113 145.973,246.800 145.147,246.800 142.634 C 246.800 140.366,240.252 132.010,238.456 131.986 L 237.400 131.971 238.544 131.036 C 239.172 130.521,240.405 129.885,241.282 129.623 C 242.160 129.360,242.782 129.049,242.666 128.932 C 241.462 127.728,230.982 133.897,231.222 135.668 C 231.379 136.823,231.150 137.186,229.882 137.788 C 228.590 138.401,227.202 140.197,227.198 141.262 C 227.192 142.595,226.303 144.787,225.352 145.814 C 222.743 148.629,226.361 157.189,231.034 159.256 C 232.533 159.919,236.615 160.206,248.200 160.461 C 248.420 160.466,249.855 160.375,251.388 160.259 C 254.311 160.039,255.200 160.353,255.200 161.606 C 255.200 162.374,254.174 162.955,253.526 162.554 C 253.305 162.418,249.856 162.234,245.862 162.146 C 241.868 162.057,237.790 161.958,236.800 161.924 C 232.331 161.773,232.105 161.848,231.263 163.750 C 230.668 165.095,230.560 165.889,230.797 167.183 C 230.973 168.145,230.932 169.429,230.702 170.179 C 230.422 171.091,230.433 171.721,230.737 172.245 C 231.135 172.930,231.177 172.935,231.188 172.300 C 231.203 171.447,231.437 171.437,233.600 172.200 C 235.878 173.004,237.706 172.956,242.090 171.980 C 250.978 170.000,258.594 170.140,267.866 172.455 C 275.196 174.285,282.630 174.361,287.351 172.655 C 289.803 171.769,290.571 171.630,290.817 172.027 C 291.021 172.358,291.290 171.914,291.579 170.769 C 292.350 167.717,295.245 159.914,296.635 157.143 C 299.005 152.415,299.690 144.795,297.916 142.892 C 297.225 142.151,296.833 141.191,296.698 139.906 C 296.238 135.517,293.324 133.592,287.330 133.715 C 282.972 133.804,282.289 134.088,282.696 135.644 C 283.049 136.995,282.442 136.446,281.212 134.300 C 280.020 132.222,279.718 131.019,280.300 130.664 C 280.751 130.390,287.513 131.934,288.820 132.611 C 290.928 133.701,292.217 132.659,290.968 130.876 C 289.934 129.399,283.802 127.192,279.200 126.641 C 278.210 126.522,279.065 126.842,281.101 127.352 M114.000 128.138 C 109.547 129.715,107.845 131.050,108.809 132.211 C 109.094 132.555,109.598 132.733,109.928 132.606 C 112.466 131.632,116.344 131.538,118.249 132.404 C 123.935 134.988,125.724 134.989,130.778 132.411 C 133.184 131.184,134.058 131.523,135.103 134.088 C 136.990 138.724,136.669 139.587,134.183 136.553 L 132.670 134.706 128.635 135.027 C 122.913 135.483,119.767 135.376,115.805 134.590 C 109.951 133.428,107.524 134.563,103.812 140.199 C 101.080 144.348,100.810 147.229,102.643 152.692 C 104.467 158.131,104.983 158.788,108.494 160.128 C 110.485 160.889,110.859 161.623,109.836 162.769 C 108.540 164.219,109.183 167.758,110.935 168.824 C 112.203 169.595,112.031 169.833,110.031 170.080 C 109.499 170.146,108.979 170.453,108.877 170.762 C 108.679 171.364,109.832 171.304,115.767 170.404 C 119.415 169.851,121.943 170.341,126.556 172.496 L 130.200 174.197 135.200 174.199 C 139.685 174.200,140.570 174.077,143.800 173.003 C 148.789 171.345,154.611 171.313,159.400 172.918 C 163.200 174.191,164.433 174.240,166.708 173.207 C 167.648 172.781,168.683 172.534,169.008 172.659 C 169.465 172.834,169.600 172.548,169.600 171.409 C 169.600 170.598,169.970 168.485,170.421 166.716 C 171.067 164.189,171.152 163.239,170.821 162.290 C 170.128 160.302,170.321 159.576,172.031 157.721 C 177.370 151.928,176.375 140.220,170.278 137.106 C 165.557 134.695,163.632 133.950,161.630 133.762 C 160.404 133.647,158.536 133.384,157.480 133.177 C 151.888 132.080,147.874 133.022,148.985 135.172 C 149.456 136.082,149.477 136.541,149.097 137.550 C 148.369 139.477,148.239 139.348,146.258 134.751 C 145.725 133.514,145.089 132.379,144.845 132.228 C 141.815 130.355,150.894 129.784,157.400 131.438 C 158.720 131.773,160.451 132.217,161.246 132.424 C 166.133 133.694,165.987 130.880,161.081 129.223 C 158.029 128.192,157.268 128.176,159.500 129.189 C 161.770 130.220,161.643 130.562,159.100 130.264 C 153.715 129.634,147.616 129.301,145.800 129.539 C 143.215 129.876,143.053 130.877,144.820 135.620 C 146.834 141.028,148.785 147.314,148.793 148.424 C 148.802 149.724,147.751 151.204,147.299 150.525 C 147.126 150.264,146.507 149.869,145.924 149.647 C 144.695 149.180,143.392 147.079,138.498 137.671 C 134.445 129.881,134.445 129.881,130.000 131.233 C 125.495 132.603,123.731 132.641,120.114 131.446 C 118.401 130.880,115.955 130.297,114.678 130.150 C 111.996 129.843,112.106 129.560,115.440 128.189 C 118.437 126.957,117.434 126.922,114.000 128.138 M269.734 131.400 C 269.927 132.060,270.516 133.729,271.043 135.108 C 272.540 139.030,271.891 139.191,269.869 135.400 C 268.171 132.215,264.800 131.228,264.800 133.915 C 264.800 137.864,261.320 138.976,260.152 135.400 C 260.008 134.960,259.375 133.848,258.745 132.928 C 256.782 130.062,256.846 130.028,263.991 130.126 L 269.382 130.200 269.734 131.400 M241.043 136.400 C 242.727 139.665,242.775 140.637,241.155 138.672 C 239.525 136.694,236.708 135.331,235.441 135.908 C 234.918 136.147,234.291 136.180,233.977 135.986 C 233.555 135.725,233.657 135.556,234.414 135.258 C 234.956 135.045,236.030 134.589,236.800 134.243 C 239.011 133.252,239.565 133.534,241.043 136.400 M261.017 133.972 C 260.744 134.414,261.375 134.892,261.744 134.522 C 262.125 134.142,262.054 133.600,261.624 133.600 C 261.417 133.600,261.144 133.768,261.017 133.972 M283.424 148.173 C 284.591 149.035,283.684 149.748,281.982 149.307 C 279.917 148.772,280.046 147.885,282.224 147.646 C 282.456 147.621,282.996 147.858,283.424 148.173 M150.000 152.000 C 150.000 152.533,149.733 152.800,149.200 152.800 C 148.760 152.800,148.400 152.725,148.400 152.633 C 148.400 152.541,148.291 152.181,148.157 151.833 C 147.974 151.355,148.171 151.200,148.957 151.200 C 149.733 151.200,150.000 151.405,150.000 152.000 M134.738 161.100 C 135.836 163.880,135.672 165.333,134.429 163.834 C 134.170 163.523,133.158 162.893,132.180 162.432 C 130.318 161.557,129.853 160.800,131.176 160.800 C 131.603 160.800,132.064 160.620,132.200 160.400 C 132.727 159.548,134.295 159.980,134.738 161.100 M159.143 160.356 C 159.789 160.765,159.397 162.400,158.653 162.400 C 157.935 162.400,157.200 161.550,157.200 160.720 C 157.200 159.955,158.211 159.766,159.143 160.356 M118.400 161.495 C 119.610 161.845,120.824 162.303,121.097 162.513 C 121.383 162.732,122.684 162.777,124.157 162.619 C 126.514 162.367,127.861 162.744,126.845 163.372 C 125.365 164.287,113.573 163.915,112.580 162.922 C 110.320 160.663,113.134 159.973,118.400 161.495 M143.422 160.835 C 143.569 161.074,143.485 161.475,143.234 161.726 C 142.732 162.228,141.573 161.719,141.290 160.871 C 141.091 160.272,143.053 160.238,143.422 160.835 M146.437 161.000 C 146.434 161.220,146.065 161.458,145.616 161.528 C 144.811 161.654,144.534 161.200,145.080 160.653 C 145.469 160.264,146.443 160.513,146.437 161.000 " stroke="none" fill="#3a96b5" fill-rule="evenodd"></path><path id="path4" d="M123.800 111.846 C 109.850 113.269,98.900 115.673,88.200 119.661 C 78.844 123.147,78.302 124.298,87.450 121.253 C 117.564 111.232,151.749 111.083,180.000 120.851 C 192.930 125.322,200.626 126.873,190.369 122.942 C 168.078 114.397,141.770 110.012,123.800 111.846 M259.000 112.040 C 249.736 112.880,250.269 113.048,262.200 113.046 C 281.507 113.042,293.963 114.634,307.731 118.863 C 312.113 120.209,313.459 120.176,309.522 118.819 C 293.338 113.242,274.148 110.667,259.000 112.040 M229.400 116.813 C 218.712 119.581,207.774 123.589,210.059 123.901 C 211.078 124.040,214.314 123.032,228.200 118.251 C 234.425 116.108,235.059 115.347,229.400 116.813 M78.976 123.780 C 78.227 124.340,78.232 124.352,79.106 124.132 C 79.605 124.006,80.110 123.745,80.230 123.552 C 80.568 123.004,79.836 123.138,78.976 123.780 M325.167 125.486 C 325.149 125.659,325.160 126.794,325.192 128.009 C 325.223 129.224,325.063 130.709,324.834 131.309 C 324.606 131.909,324.581 132.400,324.778 132.400 C 325.143 132.400,326.140 129.621,326.598 127.328 C 326.803 126.299,326.694 125.971,326.026 125.614 C 325.572 125.371,325.185 125.313,325.167 125.486 M121.596 126.583 C 114.880 127.681,110.904 129.718,114.641 130.146 C 115.938 130.295,118.401 130.880,120.114 131.446 C 123.731 132.641,125.495 132.603,130.000 131.233 C 134.445 129.881,134.445 129.881,138.498 137.671 C 143.392 147.079,144.695 149.180,145.924 149.647 C 146.507 149.869,147.126 150.264,147.299 150.525 C 147.751 151.204,148.802 149.724,148.793 148.424 C 148.785 147.314,146.834 141.028,144.820 135.620 C 143.053 130.877,143.215 129.876,145.800 129.539 C 147.616 129.301,153.715 129.634,159.100 130.264 C 164.533 130.900,159.361 128.739,152.181 127.373 C 145.239 126.053,127.623 125.597,121.596 126.583 M259.553 126.393 C 249.810 126.960,241.191 128.869,238.526 131.050 L 237.400 131.971 238.456 131.986 C 240.252 132.010,246.800 140.366,246.800 142.634 C 246.800 145.147,249.113 145.973,256.120 145.965 C 261.431 145.959,261.831 145.735,260.513 143.501 C 260.089 142.783,259.513 141.030,259.233 139.605 C 258.953 138.180,258.290 135.865,257.762 134.459 C 255.926 129.583,256.374 129.142,263.395 128.913 C 269.722 128.706,269.562 128.603,273.000 135.141 C 276.401 141.609,277.962 143.600,279.635 143.600 C 281.385 143.600,281.418 142.992,280.020 136.567 C 278.368 128.978,278.520 128.834,286.700 130.262 C 288.632 130.599,288.286 129.821,286.083 128.874 C 281.108 126.734,270.593 125.750,259.553 126.393 M80.948 127.776 C 79.399 128.450,78.999 129.037,79.863 129.369 C 81.076 129.834,84.651 128.329,84.172 127.555 C 83.857 127.045,82.399 127.145,80.948 127.776 M316.642 127.532 C 316.229 128.201,318.055 129.200,319.689 129.200 C 320.520 129.200,321.200 129.016,321.200 128.790 C 321.200 127.984,317.067 126.844,316.642 127.532 M314.983 134.428 C 314.837 134.664,314.195 137.949,313.556 141.728 C 312.219 149.639,310.887 155.495,308.959 161.943 C 306.679 169.566,307.510 169.312,310.215 161.559 C 313.239 152.893,316.826 136.773,316.182 134.743 C 315.919 133.916,315.386 133.776,314.983 134.428 M96.631 141.225 C 96.112 145.641,97.500 153.976,99.877 160.724 C 100.927 163.704,100.814 162.340,99.611 157.509 C 98.973 154.949,98.242 150.637,97.987 147.927 C 97.731 145.217,97.391 142.010,97.231 140.800 L 96.940 138.600 96.631 141.225 M194.983 141.145 C 193.268 142.191,191.853 143.989,190.365 147.010 C 188.629 150.538,189.151 150.709,191.321 147.323 C 192.295 145.804,194.151 143.628,195.445 142.487 C 197.894 140.328,197.621 139.536,194.983 141.145 M281.078 147.880 C 279.998 148.160,280.477 148.917,281.982 149.307 C 283.684 149.748,284.591 149.035,283.424 148.173 C 282.630 147.588,282.344 147.552,281.078 147.880 M148.157 151.833 C 148.291 152.181,148.400 152.541,148.400 152.633 C 148.400 152.725,148.760 152.800,149.200 152.800 C 149.733 152.800,150.000 152.533,150.000 152.000 C 150.000 151.405,149.733 151.200,148.957 151.200 C 148.171 151.200,147.974 151.355,148.157 151.833 M184.871 160.843 C 184.460 161.810,183.806 163.590,183.418 164.800 C 182.620 167.293,180.690 172.373,178.374 178.075 C 176.572 182.510,176.596 182.400,177.422 182.400 C 178.156 182.400,179.298 179.910,181.276 174.000 C 182.050 171.690,183.082 168.630,183.571 167.200 C 185.828 160.597,186.614 156.755,184.871 160.843 M115.200 170.437 C 113.990 170.624,112.203 170.920,111.230 171.094 L 109.459 171.412 110.672 172.806 C 111.338 173.573,112.197 174.867,112.579 175.683 C 114.715 180.236,124.119 187.444,124.893 185.121 C 125.016 184.753,125.340 184.761,126.289 185.154 C 127.189 185.527,128.170 185.569,129.890 185.309 C 131.304 185.095,132.695 185.098,133.353 185.318 C 134.007 185.536,135.049 185.539,135.926 185.327 C 136.737 185.130,138.390 185.102,139.600 185.265 C 140.810 185.428,143.240 185.591,145.000 185.627 C 146.760 185.664,148.857 185.955,149.660 186.275 C 153.597 187.840,162.954 183.501,165.175 179.080 C 165.639 178.156,166.644 176.621,167.409 175.669 C 168.174 174.717,168.800 173.592,168.800 173.169 C 168.800 172.227,168.871 172.226,166.744 173.191 C 164.432 174.240,163.212 174.195,159.400 172.918 C 154.611 171.313,148.789 171.345,143.800 173.003 C 140.570 174.077,139.685 174.200,135.200 174.199 L 130.200 174.197 126.569 172.501 C 123.254 170.953,119.682 169.925,118.045 170.049 C 117.690 170.076,116.410 170.250,115.200 170.437 M249.000 170.826 C 247.240 171.000,244.137 171.515,242.104 171.971 C 237.656 172.969,235.945 173.005,233.450 172.155 C 230.533 171.161,230.395 172.700,233.143 175.588 C 235.022 177.563,236.132 177.639,243.600 176.301 C 246.350 175.808,249.905 175.404,251.500 175.403 C 253.096 175.401,254.401 175.245,254.400 175.055 C 254.400 174.865,254.985 174.838,255.700 174.996 C 256.415 175.153,257.863 175.264,258.918 175.243 C 259.973 175.222,261.458 175.464,262.219 175.782 C 262.979 176.100,264.816 176.477,266.300 176.620 C 271.843 177.154,271.541 178.149,265.717 178.541 C 263.692 178.677,261.172 178.984,260.117 179.223 C 257.694 179.772,254.530 179.392,251.252 178.159 C 247.928 176.908,246.607 176.949,243.756 178.395 C 241.013 179.786,239.643 179.874,237.300 178.811 C 234.516 177.547,235.311 180.111,238.320 182.097 C 240.984 183.857,242.640 184.197,248.800 184.250 C 252.096 184.279,258.745 184.765,264.200 185.377 C 269.480 185.968,274.480 186.459,275.312 186.466 C 278.067 186.489,284.410 181.588,285.751 178.400 C 286.075 177.630,287.089 176.295,288.004 175.434 C 291.793 171.868,291.611 171.115,287.332 172.662 C 282.632 174.361,275.183 174.281,267.865 172.455 C 260.454 170.605,255.531 170.180,249.000 170.826 M126.800 177.004 C 127.130 177.274,128.454 177.597,129.742 177.723 C 132.311 177.973,132.885 178.251,131.988 178.811 C 130.712 179.608,125.963 178.433,124.625 176.989 C 124.061 176.381,123.600 175.829,123.600 175.762 C 123.600 175.514,126.223 176.532,126.800 177.004 M155.100 176.450 C 157.463 177.057,157.596 177.249,156.258 178.125 C 153.933 179.648,148.951 179.579,145.967 177.982 C 144.417 177.153,146.278 175.682,148.251 176.177 C 148.737 176.299,149.554 176.223,150.067 176.009 C 151.103 175.576,152.006 175.655,155.100 176.450 M279.649 178.107 C 283.043 178.139,281.962 178.787,278.170 178.994 C 274.804 179.178,271.862 178.598,272.852 177.946 C 273.153 177.747,274.270 177.697,275.334 177.835 C 276.398 177.972,278.340 178.095,279.649 178.107 M279.394 250.092 C 264.177 264.714,255.697 274.776,257.962 275.523 C 258.834 275.810,270.490 263.262,279.626 252.199 C 286.954 243.325,286.905 242.874,279.394 250.092 " stroke="none" fill="#cbcab2" fill-rule="evenodd"></path></g></svg>